<?xml version="1.0" encoding="UTF-8" standalone="no"?>
<!-- Created with Inkscape (http://www.inkscape.org/) -->

<svg
   xmlns:dc="http://purl.org/dc/elements/1.1/"
   xmlns:cc="http://creativecommons.org/ns#"
   xmlns:rdf="http://www.w3.org/1999/02/22-rdf-syntax-ns#"
   xmlns:svg="http://www.w3.org/2000/svg"
   xmlns="http://www.w3.org/2000/svg"
   xmlns:sodipodi="http://sodipodi.sourceforge.net/DTD/sodipodi-0.dtd"
   xmlns:inkscape="http://www.inkscape.org/namespaces/inkscape"
   version="1.1"
   width="64"
   height="64"
   id="svg3004"
   xml:space="preserve"
   inkscape:version="0.48.4 r9939"
   sodipodi:docname="icon-library.svg"><sodipodi:namedview
     pagecolor="#ffffff"
     bordercolor="#666666"
     borderopacity="1"
     objecttolerance="10"
     gridtolerance="10"
     guidetolerance="10"
     inkscape:pageopacity="0"
     inkscape:pageshadow="2"
     inkscape:window-width="1195"
     inkscape:window-height="911"
     id="namedview3180"
     showgrid="false"
     inkscape:zoom="11.4375"
     inkscape:cx="32"
     inkscape:cy="32"
     inkscape:window-x="65"
     inkscape:window-y="24"
     inkscape:window-maximized="0"
     inkscape:current-layer="svg3004" /><title
     id="title3024">JClic Player</title><metadata
     id="metadata3010"><rdf:RDF><cc:Work
         rdf:about=""><dc:format>image/svg+xml</dc:format><dc:type
           rdf:resource="http://purl.org/dc/dcmitype/StillImage" /><dc:title>JClic Player</dc:title><dc:creator><cc:Agent><dc:title>Francesc Busquets</dc:title></cc:Agent></dc:creator><dc:source>http://clic.xtec.cat</dc:source><cc:license
           rdf:resource="http://creativecommons.org/licenses/by/3.0/" /></cc:Work><cc:License
         rdf:about="http://creativecommons.org/licenses/by/3.0/"><cc:permits
           rdf:resource="http://creativecommons.org/ns#Reproduction" /><cc:permits
           rdf:resource="http://creativecommons.org/ns#Distribution" /><cc:requires
           rdf:resource="http://creativecommons.org/ns#Notice" /><cc:requires
           rdf:resource="http://creativecommons.org/ns#Attribution" /><cc:permits
           rdf:resource="http://creativecommons.org/ns#DerivativeWorks" /></cc:License></rdf:RDF></metadata><defs
     id="defs3008" /><path
     id="path2997"
     d="m 39.927485,29.490435 -0.410052,-0.188403 -0.410051,-0.160695 -0.410053,-0.144073 -0.205025,-0.06095 -0.199485,-0.04987 -0.210566,-0.05541 -0.205027,-0.04434 -0.410051,-0.07204 -0.210567,-0.03324 -0.205026,-0.02216 -0.410052,-0.02216 -0.421134,-0.0111 -0.210566,0 -0.205026,0.0111 -0.421135,0.03324 -0.415592,0.06095 -0.426675,0.07204 -0.421135,0.09974 -0.421133,0.121907 -0.421135,0.144072 -0.216108,0.07204 -0.205026,0.08311 -0.205026,0.08312 -0.193943,0.0942 -0.387887,0.193945 -0.371263,0.210566 -0.360181,0.221648 -0.177318,0.116368 -0.166238,0.127448 -0.326932,0.254897 -0.160696,0.132989 -0.149615,0.144072 -0.304767,0.282604 -0.282604,0.304767 -0.271521,0.315851 -0.254896,0.338016 -0.243815,0.349097 -0.22719,0.365723 -0.216108,0.382344 -0.193944,0.404511 -0.188402,0.404511 -0.160695,0.410051 -0.144073,0.410052 -0.110824,0.410052 -0.09974,0.410052 -0.07758,0.415592 -0.05541,0.410052 -0.02216,0.421133 -0.01662,0.410053 0.0111,0.421134 0.03324,0.415593 0.05541,0.421134 0.07204,0.415593 0.09974,0.421134 0.121906,0.421134 0.144073,0.421133 0.07204,0.205026 0.08311,0.205025 0.08311,0.199485 0.0942,0.205027 0.08865,0.193943 0.09974,0.193943 0.09974,0.188401 0.110824,0.188403 0.105284,0.17732 0.116365,0.17732 0.238272,0.343557 0.121908,0.160695 0.132989,0.166238 0.132991,0.160696 0.144071,0.160694 0.282604,0.293687 0.304769,0.288144 0.315849,0.27152 0.338016,0.260439 0.349099,0.238274 0.177319,0.116365 0.188402,0.116366 0.382346,0.216108 0.40451,0.205027 0.398969,0.177319 0.410051,0.160695 0.410052,0.13299 0.410051,0.121907 0.410052,0.08866 0.415593,0.07758 0.410051,0.04986 0.421135,0.03324 0.410052,0.0056 0.421134,-0.0111 0.415593,-0.03324 0.421133,-0.05541 0.421135,-0.07758 0.421133,-0.0942 0.421135,-0.121908 0.432216,-0.132989 0.09974,-0.04434 0.04987,-0.02216 0.05541,-0.01663 0.09974,-0.04434 0.04988,-0.02216 0.05541,-0.01662 0.199485,-0.08865 0.199485,-0.08311 0.188401,-0.09974 0.04434,-0.0277 0.04987,-0.02216 0.09974,-0.04434 0.188401,-0.105284 0.188402,-0.09974 0.177319,-0.116366 0.17732,-0.110824 0.171779,-0.121908 0.03878,-0.03324 0.04434,-0.0277 0.08866,-0.05541 0.07758,-0.0665 0.03878,-0.03324 0.04434,-0.0277 0.166236,-0.127448 0.160696,-0.132989 0.160697,-0.13299 0.144072,-0.149613 0.149613,-0.144073 0.144073,-0.149613 0.144071,-0.149614 0.132991,-0.160695 0.0665,-0.08312 0.07204,-0.07758 0.132989,-0.166236 0.132989,-0.166238 0.116367,-0.17732 0.121907,-0.17732 0.05541,-0.0942 0.06095,-0.08866 0.05541,-0.0942 0.06096,-0.08866 0.04987,-0.09974 0.05541,-0.0942 0.110824,-0.188402 0.105284,-0.199485 0.04987,-0.09974 0.05541,-0.0942 0.17732,-0.410051 0.155154,-0.410053 0.132991,-0.410051 0.121906,-0.410052 0.04434,-0.210567 0.04434,-0.205026 0.07758,-0.410051 0.02216,-0.210567 0.0111,-0.105284 0.01662,-0.09974 0.03324,-0.410052 0.0056,-0.421134 -0.0056,-0.210567 -0.0056,-0.05541 0,-0.04987 0,-0.09974 -0.03324,-0.421134 -0.0277,-0.210567 -0.02216,-0.205026 -0.07758,-0.421135 -0.0942,-0.421133 -0.121907,-0.421134 -0.13299,-0.421134 -0.08311,-0.216108 -0.08311,-0.205026 -0.171766,-0.404511 -0.193943,-0.393427 -0.205026,-0.371265 -0.227191,-0.360179 -0.121908,-0.177319 -0.116365,-0.166238 -0.133016,-0.171784 -0.127449,-0.160694 -0.13299,-0.160696 -0.13299,-0.149615 -0.293685,-0.304767 -0.299227,-0.282604 -0.321392,-0.27152 -0.166237,-0.132989 -0.166237,-0.121908 -0.17732,-0.127448 -0.17732,-0.116367 -0.360181,-0.22719 -0.382345,-0.216108 -0.393427,-0.193943"
     style="fill:none;stroke:#336633;stroke-width:0.77023208"
     inkscape:connector-curvature="0" /><path
     id="path2999"
     d="m 35.383669,41.265564 -2.565593,-1.219072 -0.792396,1.673454 2.565592,1.219073 0.792397,-1.673455"
     style="fill:none;stroke:#336633;stroke-width:0.58182997"
     inkscape:connector-curvature="0" /><path
     id="path3001"
     d="m 40.392948,34.649327 -0.166236,-0.282603 -0.0942,-0.138531 -0.09974,-0.127448 -0.110824,-0.13299 -0.116366,-0.121907 -0.254897,-0.238273 -0.288144,-0.227192 -0.155154,-0.110824 -0.160696,-0.105284 -0.171779,-0.105284 -0.17732,-0.09974 -0.18286,-0.09974 -0.188403,-0.08866 -1.811985,-0.642785 -1.429639,-0.22719 -0.925386,1.956056 0.243814,0.116368 0.315851,-0.03324 0.326932,-0.0111 0.326933,0.0056 0.332476,0.03324 1.12487,0.293685 0.17732,0.08311 0.166237,0.0942 0.149613,0.0942 0.144072,0.09974 0.121908,0.09974 0.110824,0.110825 0.0942,0.110824 0.08311,0.121907 0.06095,0.116366 0.04434,0.127448 0.02216,0.127449 0.0111,0.138531 -0.0111,0.138531 -0.0277,0.149613 -0.04987,0.149613 -0.06095,0.160696 -0.06095,0.09974 -0.06095,0.09974 -0.0665,0.0942 -0.0665,0.08866 -0.08311,0.07758 -0.07758,0.07204 -0.08866,0.0665 -0.08865,0.0665 -0.09974,0.05541 -0.09974,0.05541 -0.105283,0.04434 -0.105284,0.04434 -0.116367,0.03324 -0.110824,0.03324 -0.121907,0.02216 -0.116366,0.02216 -0.138531,0.02216 -0.127449,0.02216 -0.249355,0.02216 -0.121908,0 -0.110824,0 -0.216109,-0.0111 -0.936469,-0.144073 -1.025129,2.166625 2.255284,1.069458 0.692655,-1.468428 0.08311,0 0.08865,0.0056 0.17732,0.0111 0.08311,0 0.08865,0.0056 0.08311,0 0.08866,0.0056 0.07758,-0.0056 0.08311,0 0.166237,-0.0056 0.160697,-0.0111 0.166236,-0.0056 1.130413,-0.260438 0.243815,-0.121907 0.116366,-0.0665 0.121906,-0.0665 0.232733,-0.166236 0.110824,-0.08866 0.116366,-0.08865 0.04434,-0.06096 0.04988,-0.05541 0.09974,-0.116365 0.04434,-0.0665 0.02216,-0.03324 0.0111,-0.01662 0.01662,-0.0111 0.04434,-0.0665 0.02216,-0.03324 0.0111,-0.01662 0.01662,-0.0111 0.0056,-0.02216 0.0111,-0.01662 0.02216,-0.03324 0.04434,-0.0665 0.08866,-0.144071 0.0388,-0.07758 0.04434,-0.07204 0.08311,-0.155156 0.06095,-0.144072 0.04988,-0.144072 0.04434,-0.144073 0.03879,-0.13853 0.02216,-0.144072 0.01662,-0.144073 0.0111,-0.144072 0.0056,-0.132989 -0.0111,-0.144073 -0.01662,-0.144072 -0.0277,-0.144072 -0.03324,-0.132989 -0.04986,-0.144073 -0.04988,-0.132989 -0.06095,-0.144073 -0.0665,-0.13299"
     style="fill:none;stroke:#336633;stroke-width:0.58182997"
     inkscape:connector-curvature="0" /><path
     id="path3003"
     d="m 13.430082,25.648658 -0.187251,-0.107006 -0.180564,-0.09362 -0.361128,-0.173877 -0.374502,-0.1605 -0.361127,-0.133751 -0.374503,-0.120376 -0.187251,-0.0535 -0.180564,-0.04012 -0.374503,-0.08025 -0.374503,-0.0535 -0.387877,-0.04682 -0.374503,-0.02007 -0.3878777,0 -0.1939388,0.0067 -0.1872514,0.02007 -0.3945653,0.03344 -0.3878777,0.06019 -0.4012528,0.08025 -0.3878777,0.10031 -0.4079405,0.113688 -0.3811901,0.127064 -0.3745027,0.140438 -0.3544399,0.167189 -0.35444,0.173875 -0.3343774,0.19394 -0.3276899,0.207313 -0.3076271,0.234065 -0.3076272,0.234064 -0.2875645,0.260815 -0.2741894,0.274189 -0.2608144,0.287564 -0.2608143,0.30094 -0.2340642,0.321002 -0.2273766,0.334378 -0.207314,0.354439 -0.2073138,0.354441 -0.1805639,0.361127 -0.1605011,0.361128 -0.1337509,0.367815 -0.1203759,0.361127 -0.093626,0.374502 -0.080251,0.374503 -0.053501,0.381191 -0.046813,0.374503 -0.020063,0.381189 0,0.387879 0.02675,0.394564 0.040125,0.387879 0.060188,0.394564 0.080251,0.401253 0.1070002,0.401253 0.1070003,0.387878 0.1270634,0.38119 0.1404384,0.367815 0.1671887,0.35444 0.1671887,0.341065 0.1939388,0.334377 0.207314,0.321002 0.1070003,0.153814 0.1203758,0.160502 0.2340642,0.287564 0.1203758,0.140438 0.1337509,0.147126 0.2741895,0.27419 0.2875646,0.260814 0.3009395,0.247439 0.1538137,0.113689 0.1671887,0.120376 0.1605011,0.106994 0.1738762,0.113689 0.35444,0.220689 0.3611275,0.187251 0.3611276,0.180564 0.3678151,0.153814 0.3745027,0.140438 0.367815,0.113689 0.3745027,0.100309 0.3745026,0.07356 0.3878778,0.06687 0.3745025,0.03344 0.3878778,0.02007 0.3878777,0 0.3945654,-0.01337 0.387877,-0.04012 0.401253,-0.0535 0.401253,-0.08026 0.407941,-0.09362 0.387878,-0.120376 0.187251,-0.06687 0.09362,-0.03344 0.10031,-0.02675 0.180564,-0.08025 0.187251,-0.07356 0.173877,-0.08025 0.08694,-0.04012 0.09362,-0.03344 0.167188,-0.09363 0.173877,-0.08694 0.334376,-0.193939 0.321003,-0.214002 0.03344,-0.03344 0.04012,-0.02675 0.08025,-0.0535 0.160501,-0.106994 0.294251,-0.247439 0.06687,-0.06687 0.03344,-0.03344 0.04012,-0.02675 0.147127,-0.127065 0.13375,-0.140438 0.140438,-0.13375 0.127065,-0.147127 0.13375,-0.140439 0.120376,-0.153813 0.06019,-0.08026 0.06687,-0.07357 0.240752,-0.314315 0.106995,-0.173875 0.0535,-0.08694 0.06019,-0.08025 0.106994,-0.173876 0.0535,-0.08694 0.06019,-0.08026 0.193939,-0.361126 0.180564,-0.361128 0.07356,-0.187252 0.08025,-0.180564 0.140438,-0.361127 0.113689,-0.374503 0.0535,-0.187252 0.0535,-0.180562 0.08025,-0.374503 0.03344,-0.187251 0.01338,-0.09363 0.0067,-0.04682 0.01337,-0.04012 0.03344,-0.387878 0.01337,-0.193939 0.01337,-0.187251 0,-0.387879 -0.0067,-0.0535 0,-0.04682 0,-0.09362 -0.0067,-0.187251 -0.02007,-0.200626 -0.01337,-0.10031 -0.0067,-0.09362 -0.0535,-0.387877 -0.07357,-0.401253 -0.08694,-0.387878 -0.127064,-0.401252 -0.127063,-0.381191 -0.153814,-0.374503 -0.160501,-0.35444 -0.180564,-0.35444 -0.193906,-0.32765 -0.214001,-0.321003 -0.220689,-0.300939 -0.247439,-0.30094 -0.254127,-0.287564 -0.27419,-0.274189 -0.287564,-0.254127 -0.307627,-0.254127 -0.314315,-0.234064 -0.341065,-0.220689 -0.341065,-0.207314"
     style="fill:none;stroke:#336633;stroke-width:0.71556753"
     inkscape:connector-curvature="0" /><path
     id="path3005"
     d="m 10.153184,28.383864 0.120376,-0.214 0.140438,-0.173877 0.147127,-0.147126 0.160501,-0.106995 0.160501,-0.08694 0.180564,-0.04682 0.187251,-0.01337 0.207314,0.02007 -0.688817,1.344197 1.457885,0.715567 0.835943,-1.190383 0.0535,0.06687 0.04682,0.06687 0.08026,0.153814 0.02675,0.07356 0.02007,0.08025 0.01337,0.08026 0.0067,0.08694 -0.0067,0.08025 -0.01337,0.08694 -0.04012,0.187252 -0.03344,0.09362 -0.04012,0.09363 -0.04682,0.100309 -0.0535,0.107006 -0.04012,0.04682 -0.03344,0.0535 -0.06687,0.100309 -0.08025,0.09362 -0.04012,0.04012 -0.01337,0.0067 -0.0067,0.01338 -0.01337,0.02675 -0.02675,0.01337 -0.01337,0.0067 -0.0067,0.01338 -0.04012,0.04012 -0.08025,0.07356 -0.09362,0.06687 -0.04682,0.02675 -0.04012,0.03344 -0.100309,0.04012 -0.10031,0.04012 -0.106995,0.03344 -0.100309,0.02675 -0.113689,0.01337 -0.107006,0.01337 -0.120375,0.0067 -0.113688,0 -1.043258,1.992889 4.106155,2.20689 -0.87607,1.598324 -4.0860907,-2.327266 -1.0833827,1.852451 0.093626,0.153814 0.066875,0.167188 0.046812,0.167188 0.02675,0.180564 0,0.180564 -0.02675,0.187251 -0.046812,0.193939 -0.066875,0.200627 -0.053501,0.08694 -0.046812,0.09363 -0.060188,0.08025 -0.060188,0.08026 -0.073563,0.06687 -0.040125,0.03344 -0.033438,0.04012 -0.046812,0.02675 -0.040125,0.03344 -0.080251,0.06019 -0.053501,0.02007 -0.046812,0.02675 -0.093626,0.04681 -0.1070002,0.04012 -0.100313,0.04012 -0.1203758,0.02675 -0.060188,0.01337 -0.053501,0.02007 -0.066875,0.0067 -0.060188,0.01337 -0.066875,0.0067 -0.060188,0.01337 0.7891306,-1.350885 -1.4645728,-0.949631 -0.7155676,1.14357 -0.1070002,-0.133751 -0.046813,-0.07356 -0.02675,-0.06687 -0.02675,-0.08025 -0.013375,-0.07356 -0.00669,-0.08694 0.00669,-0.08025 0.00669,-0.09362 0.020063,-0.08694 0.02675,-0.100309 0.040125,-0.09362 0.040125,-0.106995 0.053501,-0.100309 0.060188,-0.107006 0.073563,-0.10031 0.1404386,-0.220689 0.147126,-0.173876 0.1538136,-0.147125 0.1671886,-0.10031 0.1671887,-0.07356 0.1738762,-0.03344 0.1805639,0 0.1939388,0.04681 0.9161939,-1.7722 -2.7418943,-1.671887 -0.5149411,0.702193 0.2741894,0.187251 -0.635317,0.996445 -1.7922626,-1.029882 0.7021924,-1.009819 0.4413781,0.08025 0.3343774,-0.782443 -0.3343774,-0.247439 0.7222551,-1.150258 0.3210023,0.187251 0.5684415,-0.775755 0.020063,-0.140439 0.066875,-0.113688 0.1003129,-0.113688 0.1471261,-0.08694 0.1738762,-0.08694 0.2140016,-0.06019 0.2474391,-0.04682 0.2942521,-0.03344 0.1404385,-0.02007 0.1404386,-0.0067 0.1270634,0 0.1337509,0.01337 0.1136882,0.01337 0.1136884,0.02675 0.1070002,0.02675 0.1070014,0.04012 0.086938,0.04012 0.086938,0.0535 0.080251,0.0535 0.080251,0.06687 0.060188,0.06687 0.066875,0.08025 0.053501,0.08025 0.053501,0.09362 -0.1872513,-0.02007 -0.1738762,0.0067 -0.1738762,0.02007 -0.1671887,0.04012 -0.1738762,0.0535 -0.1671887,0.07356 -0.1605012,0.08694 -0.1538135,0.107006 -0.1605012,0.106995 -0.1337509,0.120376 -0.1136884,0.120376 -0.093626,0.133752 -0.080251,0.13375 -0.053501,0.140438 -0.040125,0.147126 -0.013375,0.160501 2.7887071,1.605012 1.0766951,-1.946077 -0.133751,-0.147125 -0.0535,-0.08025 -0.033438,-0.07356 -0.060188,-0.160502 -0.013376,-0.08694 0,-0.08025 0.00669,-0.187251 0.020063,-0.10031 0.033438,-0.09362 0.033438,-0.107005 0.046813,-0.10031 0.0535,-0.107006 0.06687,-0.100309"
     style="fill:none;stroke:#336633;stroke-width:0.53500378"
     inkscape:connector-curvature="0" /><path
     id="path3007"
     d="m 29.914886,34.409345 -0.555067,0.0067 -0.535003,0.04012 -0.528316,0.0535 -0.508253,0.09362 -0.508255,0.107006 -0.488191,0.133752 -0.48819,0.153813 -0.468128,0.187252 -0.474817,0.200626 -0.454752,0.234064 -0.448067,0.254127 -0.428003,0.287564 -0.428002,0.30094 -0.407941,0.334378 -0.407941,0.347752 -0.387877,0.387877 -0.38119,0.387878 -0.347753,0.407941 -0.334376,0.40794 -0.294253,0.428003 -0.280877,0.428003 -0.254127,0.448066 -0.234064,0.454753 -0.200626,0.474816 -0.187251,0.468128 -0.153814,0.488191 -0.133751,0.488191 -0.107006,0.508253 -0.08694,0.508254 -0.0535,0.528316 -0.04012,0.535004 -0.0067,0.555066 0.0067,0.541692 0.04012,0.535003 0.02007,0.260815 0.03344,0.267502 0.08694,0.514941 0.04682,0.247439 0.06019,0.254127 0.133751,0.494879 0.153814,0.488191 0.187251,0.481503 0.09362,0.227376 0.107006,0.234064 0.234065,0.454754 0.254127,0.441378 0.13375,0.214002 0.147126,0.220688 0.140439,0.207315 0.153814,0.214 0.334377,0.414629 0.167189,0.200626 0.180564,0.207314 0.38119,0.394566 0.387877,0.374502 0.40794,0.347753 0.407942,0.327689 0.428002,0.307627 0.428003,0.280877 0.448066,0.254128 0.454753,0.234063 0.474816,0.214002 0.468129,0.173876 0.48819,0.160501 0.488191,0.133751 0.508254,0.113689 0.508253,0.08025 0.528317,0.06687 0.535003,0.04012 0.555067,0.01337 0.267502,-0.0067 0.13375,-0.0067 0.140438,0 0.535005,-0.04012 0.521629,-0.06687 0.254126,-0.04012 0.260814,-0.04012 0.120376,-0.03344 0.127064,-0.02675 0.254126,-0.0535 0.494879,-0.133751 0.240752,-0.08025 0.247439,-0.08025 0.481503,-0.173877 0.227377,-0.107006 0.234064,-0.107006 0.454753,-0.234063 0.441378,-0.254128 0.214002,-0.140438 0.107006,-0.07356 0.113687,-0.06687 0.10031,-0.08025 0.107006,-0.07356 0.214001,-0.153813 0.414628,-0.327689 0.200627,-0.173877 0.207313,-0.173876 0.401253,-0.374502 0.180564,-0.200627 0.187251,-0.193939 0.173877,-0.207314 0.173875,-0.200626 0.327691,-0.414629 0.153813,-0.214 0.07356,-0.107006 0.08025,-0.10031 0.133751,-0.220689 0.140439,-0.214001 0.254126,-0.441378 0.234064,-0.454754 0.107006,-0.234064 0.107006,-0.227377 0.180563,-0.481502 0.08026,-0.24744 0.08025,-0.240752 0.133752,-0.494878 0.0535,-0.254127 0.02675,-0.127063 0.03344,-0.120376 0.04012,-0.260815 0.04012,-0.254127 0.03344,-0.267501 0.01337,-0.133752 0.0067,-0.06687 0.01337,-0.06019 0.04012,-0.535003 0,-0.140439 0.0067,-0.133751 0.01337,-0.267502 -0.02007,-0.555065 -0.04012,-0.535005 -0.06687,-0.528316 -0.08025,-0.508253 L 40.233768,42.414341 40.100017,41.92615 39.939516,41.437959 39.758952,40.969831 39.54495,40.495015 39.310887,40.040262 39.05676,39.592196 38.78257,39.164193 38.474943,38.73619 38.147253,38.32825 37.799501,37.92031 37.431685,37.532431 37.030433,37.144554 36.823119,36.96399 36.622492,36.796802 36.207865,36.462424 35.786549,36.161484 35.351858,35.87392 34.91048,35.619793 l -0.454753,-0.234064 -0.234064,-0.106995 -0.227377,-0.09362 -0.481503,-0.187252 -0.488191,-0.153813 -0.494879,-0.133752 -0.254126,-0.06019 -0.24744,-0.04682 -0.260813,-0.0535 -0.254127,-0.04012 -0.521629,-0.0535 -0.535005,-0.04012 -0.54169,-0.0067"
     style="fill:none;stroke:#336633;stroke-width:0.94294417"
     inkscape:connector-curvature="0" /><path
     id="path3009"
     d="M 30.316139,45.590924 30.1757,45.73805 29.607259,46.186115"
     style="fill:none;stroke:#336633;stroke-width:0.70888001"
     inkscape:connector-curvature="0" /><path
     id="path3011"
     d="m 29.607259,46.186115 5.109286,5.129349 1.130195,-1.156946 -5.055786,-5.035723 -0.474815,0.468129"
     style="fill:none;stroke:#336633;stroke-width:0.70888001"
     inkscape:connector-curvature="0" /><path
     id="path3013"
     d="m 30.316139,45.590924 0.38119,-0.468129 0.09362,-0.140439 0.09363,-0.13375 0.160501,-0.280877 0.133751,-0.294253 0.0535,-0.153813 0.06019,-0.147126 0.04012,-0.160501 0.04012,-0.153813 0.06019,-0.321003 0.02675,-0.334378 0.0067,-0.173875 0,-0.08694 0.0067,-0.08025 -0.02007,-0.615254 -0.06687,-0.341065 -0.08694,-0.32769 -0.113689,-0.314314 -0.13375,-0.294252 -0.167189,-0.294253 -0.187252,-0.274189 -0.214001,-0.267501 -0.240751,-0.24744 -0.16719,-0.160502 -0.160501,-0.140438 -0.167188,-0.13375 -0.167189,-0.120376 -0.180564,-0.120376 -0.173876,-0.10031 -0.180564,-0.09362 -0.180564,-0.07357 -0.193938,-0.08025 -0.193939,-0.06019 -0.200627,-0.06019 -0.193938,-0.04012 -0.207315,-0.04012 -0.207313,-0.02007 -0.214002,-0.01337 -0.207314,0 -0.43469,0.01337 -0.407941,0.06019 -0.394565,0.10031 -0.38119,0.140438 -0.367815,0.167189 -0.180564,0.10031 -0.167189,0.120376 -0.173876,0.120376 -0.160501,0.13375 -0.314315,0.30094 -0.160501,0.147125 -0.140439,0.160503 -0.254126,0.327689 -0.120376,0.167188 -0.10031,0.180564 -0.167188,0.367815 -0.140439,0.38119 -0.09362,0.394566 -0.04012,0.200627 -0.02007,0.214 -0.01337,0.434691 0,0.207314 0.01337,0.214002 0.02007,0.207314 0.04012,0.214002 0.04012,0.193938 0.0535,0.200626 0.06019,0.19394 0.08025,0.193938 0.07356,0.180564 0.09362,0.180563 0.100309,0.173877 0.120376,0.180564 0.120376,0.167188 0.133751,0.16719 0.140439,0.1605 0.160501,0.167189 0.227376,0.214001 0.247439,0.200627 0.24744,0.173876 0.267502,0.160501 0.267501,0.127063 0.280878,0.113689 0.287564,0.09362 0.300939,0.07357 0.856007,0.07356 0.307627,-0.01337 0.07356,-0.01337 0.08026,-0.0067 0.160501,-0.01338 0.147126,-0.03344 0.153814,-0.02675 0.147126,-0.04012 0.03344,-0.01337 0.04012,-0.0067 0.08025,-0.01338 0.140439,-0.0535 0.147127,-0.04681 0.06687,-0.03344 0.07356,-0.02675 0.147126,-0.06019 0.280877,-0.147127 0.280877,-0.160501"
     style="fill:none;stroke:#336633;stroke-width:0.70888001"
     inkscape:connector-curvature="0" /><path
     id="path3015"
     d="m 30.576953,42.661777 -0.02007,-0.254126 -0.02675,-0.240751 -0.04682,-0.240752 -0.06019,-0.227377 -0.08025,-0.227377 -0.08694,-0.214001 -0.107006,-0.214002 -0.113689,-0.200626 -0.428003,-0.521629 -0.254126,-0.227376 -0.133751,-0.107006 -0.127063,-0.08694 -0.140439,-0.08694 -0.133751,-0.07357 -0.280877,-0.127063 -0.153813,-0.06019 -0.147127,-0.04682 -0.153813,-0.04682 -0.147127,-0.02675 -0.160501,-0.02675 -0.153813,-0.01337 -0.167189,-0.01337 -0.1605,0 -0.341065,0.01337 -0.327691,0.04012 -0.314314,0.07356 -0.294253,0.107006 -0.287564,0.127063 -0.27419,0.160501 -0.260814,0.19394 -0.240752,0.227376 -0.234063,0.240752 -0.19394,0.260814 -0.167188,0.27419 -0.133751,0.287564 -0.107006,0.294253 -0.06687,0.314314 -0.04012,0.327691 -0.0067,0.341063 -0.0067,0.160502 0.01337,0.167189 0.01337,0.160501 0.02675,0.167189 0.02675,0.147125 0.04012,0.153814 0.04682,0.147126 0.06019,0.153814 0.06019,0.13375 0.07356,0.140439 0.07356,0.133751 0.09362,0.140439 0.08694,0.127063 0.107006,0.133751 0.107006,0.120376 0.127064,0.127063 0.35444,0.334378 0.207313,0.140438 0.227378,0.133751 0.234063,0.106995 0.24744,0.09362 0.247439,0.06687 0.267502,0.0535 0.267501,0.02675 0.287566,0.01337 0.0535,-0.0067 0.06019,0 0.120376,-0.0067 0.113688,-0.01337 0.120376,-0.0067 0.107006,-0.02675 0.0535,-0.01337 0.02675,-0.0067 0.03344,0 0.227376,-0.04682 0.214002,-0.07356 0.214002,-0.08025 0.200626,-0.10031 0.200627,-0.113688 0.568441,-0.474816 0.494878,-0.615254 0.10031,-0.200626 0.02007,-0.0535 0.02675,-0.04681 0.0535,-0.09362 0.04012,-0.107006 0.04012,-0.10031 0.03344,-0.107006 0.04012,-0.100309 0,-0.03344 0.0067,-0.02675 0.01337,-0.0535 0.02675,-0.106995 0.04012,-0.214001 0.02007,-0.227377 0.01337,-0.227377"
     style="fill:none;stroke:#336633;stroke-width:0.23406415"
     inkscape:connector-curvature="0" /><path
     id="path3017"
     d="m 9.2904905,39.010377 -0.4346905,0.0067 -0.4213154,0.02675 -0.414628,0.04681 -0.4012528,0.06687 -0.4012529,0.08026 -0.3878777,0.107006 -0.3811901,0.127063 -0.3678152,0.147125 -0.3678151,0.160502 -0.35444,0.180563 -0.35444,0.200627 -0.3343773,0.227376 -0.341065,0.234065 -0.3210022,0.260814 -0.3210022,0.280877 -0.3009396,0.30094 -0.3009396,0.30094 -0.2741896,0.321002 -0.2608143,0.321002 -0.2340641,0.341065 -0.220689,0.334377 -0.2006265,0.35444 -0.1805637,0.35444 -0.1538137,0.367816 -0.147126,0.367815 -0.1270634,0.38119 -0.1070013,0.387877 -0.08025,0.401253 -0.066875,0.401253 -0.0468134,0.414628 -0.0267504,0.421315 -0.006685,0.434691 0.006685,0.421316 0.006685,0.207313 0.020063,0.214002 0.0468134,0.414628 0.02675,0.200626 0.040125,0.207314 0.033438,0.193939 0.046812,0.200627 0.1070014,0.387877 0.1270634,0.38119 0.066875,0.187251 0.080251,0.19394 0.1538136,0.361127 0.1805638,0.35444 0.2006264,0.347753 0.2206891,0.347752 0.2340641,0.32769 0.2608143,0.327689 0.2741895,0.314315 0.3009397,0.314315 0.3009396,0.287565 0.3210022,0.280877 0.3210022,0.254126 0.3410649,0.24744 0.3343774,0.214001 0.35444,0.207315 0.35444,0.180562 0.3678151,0.16719 0.3678152,0.140438 0.3811901,0.127063 0.3878777,0.10031 0.4012529,0.09362 0.4012528,0.06019 0.414628,0.0535 0.4213154,0.02675 0.4346905,0.01337 0.046812,-0.0067 0.053501,0 0.1070002,0 0.2140015,-0.0067 0.207314,-0.01337 0.2140021,-0.01337 0.200626,-0.02675 0.207314,-0.02675 0.200627,-0.03344 0.207314,-0.02675 0.09362,-0.02675 0.04682,-0.01338 0.0535,-0.0067 0.200627,-0.04681 0.387877,-0.10031 0.187252,-0.06687 0.09362,-0.03344 0.10031,-0.02675 0.187251,-0.07356 0.19394,-0.06687 0.361126,-0.167189 0.173877,-0.09363 0.04012,-0.02675 0.04682,-0.02007 0.09362,-0.04012 0.347752,-0.207314 0.347753,-0.214002 0.1605,-0.127063 0.16719,-0.120376 0.160501,-0.127064 0.08025,-0.06687 0.04012,-0.03344 0.04682,-0.02675 0.321003,-0.280877 0.153813,-0.147126 0.160501,-0.140439 0.140438,-0.160501 0.147127,-0.153813 0.140439,-0.160501 0.06687,-0.08026 0.03344,-0.04012 0.04012,-0.03344 0.02675,-0.04681 0.03344,-0.04012 0.06687,-0.08025 0.127063,-0.160501 0.120376,-0.16719 0.120376,-0.160501 0.214002,-0.347752 0.200625,-0.347752 0.04012,-0.09362 0.02007,-0.04682 0.02675,-0.04012 0.09362,-0.173877 0.16719,-0.361127 0.06687,-0.193939 0.07356,-0.187252 0.02675,-0.100309 0.03344,-0.09362 0.06687,-0.187251 0.100309,-0.387877 0.04682,-0.200627 0.0067,-0.0535 0.01338,-0.04681 0.02675,-0.09362 0.01338,-0.107006 0.0067,-0.0535 0.01337,-0.04682 0.03344,-0.200626 0.0535,-0.414629 0.01337,-0.214001 0.01337,-0.207313 0.0067,-0.214002 0.01337,-0.207314 -0.02007,-0.434691 -0.02675,-0.421315 -0.0535,-0.414628 -0.06687,-0.401253 -0.09362,-0.401253 -0.100309,-0.387877 -0.127064,-0.38119 -0.140438,-0.367815 -0.167189,-0.367816 -0.180564,-0.35444 -0.200603,-0.354464 -0.214001,-0.334377 -0.240752,-0.341065 -0.254127,-0.321002 -0.280877,-0.321002 -0.287564,-0.30094 -0.314315,-0.30094 -0.321003,-0.280877 -0.327689,-0.260814 -0.32769,-0.234064 -0.347752,-0.227377 -0.347752,-0.200627 -0.354441,-0.180563 -0.361127,-0.160502 -0.19394,-0.08025 -0.187251,-0.06688 -0.38119,-0.127063 -0.387877,-0.107006 -0.200627,-0.04681 -0.193939,-0.03344 -0.207314,-0.04012 -0.200626,-0.02675 -0.40794,-0.04681 -0.2140024,-0.02007 -0.207314,-0.0067 -0.4213155,-0.0067"
     style="fill:none;stroke:#336633;stroke-width:0.74231774"
     inkscape:connector-curvature="0" /><path
     id="path3019"
     d="m 10.668125,47.757689 -0.0067,-0.140439 -0.01337,-0.13375 -0.02006,-0.127064 -0.02675,-0.120376 -0.08025,-0.247439 -0.107,-0.220689 -0.147126,-0.220689 -0.08025,-0.107006 -0.08694,-0.100309 -0.1003134,-0.107006 -0.1070002,-0.09363 -0.2273792,-0.180558 -0.1337509,-0.09363 -0.1270634,-0.08025 -0.1404385,-0.08025 -0.1337509,-0.06688 -0.2875646,-0.127063 -0.147126,-0.0535 -0.1404385,-0.04013 -0.3143147,-0.08694 -0.1671887,-0.03344 -0.1605012,-0.02006 -0.3410648,-0.03344 -0.3410649,-0.0067 -0.3678152,0.0067 -0.3410649,0.03344 -0.3276897,0.0535 -0.3143148,0.08694 -0.3009396,0.09362 -0.2875645,0.127063 -0.1404386,0.06687 -0.1270633,0.08026 -0.2474392,0.173876 -0.2407518,0.180564 -0.2006263,0.200626 -0.1738762,0.207315 -0.1404386,0.220689 -0.1136882,0.220689 -0.073563,0.247439 -0.046813,0.247439 -0.013375,0.27419 0.013375,0.254126 0.013375,0.120376 0.02675,0.127064 0.02675,0.113688 0.046813,0.120375 0.1070003,0.227377 0.1337509,0.214002 0.1605012,0.214002 0.1939388,0.200626 0.1070003,0.09362 0.1203758,0.10031 0,0.167189 -0.00669,0.02675 0,0.03344 0,0.06687 -0.013375,0.133751 -0.02675,0.120376 -0.013375,0.02675 -0.00669,0.01337 0,0.02007 -0.013375,0.06687 -0.046812,0.106994 -0.02675,0.0535 -0.013375,0.02675 -0.00669,0.01337 0,0.02007 -0.013375,0.0067 -0.00669,0.01338 -0.013375,0.02675 -0.02675,0.0535 -0.066875,0.10031 -0.086938,0.08025 -0.02675,0.01338 -0.013375,0.0067 -0.00669,0.01337 -0.040125,0.04012 -0.093626,0.06019 -0.093626,0.06019 -0.1070003,0.04682 -0.1003129,0.04012 -0.1136882,0.02675 -0.033438,0 -0.02675,0.0067 -0.053501,0.01337 0.1270634,0.06687 0.1270634,0.06687 0.1203759,0.0535 0.1203758,0.04681 0.1070003,0.03344 0.1136883,0.02675 0.1070003,0.01338 0.1070014,0.0067 0.1337509,-0.0067 0.1337509,-0.01338 0.1270634,-0.02675 0.1203759,-0.03344 0.1070002,-0.04681 0.046813,-0.02675 0.053501,-0.02007 0.093626,-0.06019 0.093626,-0.06687 0.073563,-0.08025 0.013375,-0.02675 0.00669,-0.01337 0.013375,-0.0067 0.040125,-0.04012 0.066875,-0.10031 0.060188,-0.107006 0.046813,-0.120376 0.046812,-0.120376 0.040125,-0.13375 0.013376,-0.07356 0.020063,-0.06687 1.3241343,0.207313 0.1671887,-0.01337 0.1738763,-0.0067 0.08025,-0.01338 0.040125,-0.0067 0.046813,0 0.1738762,-0.02007 0.1605012,-0.03344 0.080251,-0.02007 0.086938,-0.01337 0.1538136,-0.04012 0.160501,-0.04012 0.066875,-0.03344 0.073563,-0.02675 0.147126,-0.0535 0.1404385,-0.06687 0.1471261,-0.06687 0.1337509,-0.08026 0.066875,-0.04012 0.013376,-0.01338 0.020063,-0.0067 0.040125,-0.01337 0.02675,-0.02675 0.013375,-0.01338 0.020063,-0.0067 0.066875,-0.04012 0.1337509,-0.08694 0.2273766,-0.200626 0.1070002,-0.107006 0.046813,-0.0535 0.0535,-0.04681 0.08694,-0.107006 0.08025,-0.107006 0.01337,-0.03344 0.02006,-0.02675 0.04012,-0.0535 0.07356,-0.106995 0.107,-0.240752 0.08025,-0.240752 0.02675,-0.13375 0.02006,-0.120376 0.01337,-0.133751 0,-0.06687 0,-0.03344 0.0067,-0.02675"
     style="fill:none;stroke:#336633;stroke-width:0.74231774"
     inkscape:connector-curvature="0" /><path
     id="path3021"
     d="m 9.4576792,43.149969 -0.2407516,0.167189 -0.2006265,0.193939 -0.1738762,0.200625 -0.1404384,0.220689 -0.1136884,0.22069 -0.073563,0.240751 -0.046812,0.24744 -0.013375,0.274189 0.053501,0.374503 0.1939389,0.02007 0.2006263,0.04012 0.1872514,0.06019 0.2006264,0.08694 0.1872514,0.09363 0.1872512,0.120376 0.1805638,0.140438 0.1872515,0.1605 0.153814,0.153814 0.147126,0.160502 0.127063,0.167188 0.120376,0.173877 0.100313,0.173876 0.08694,0.180564 0.07356,0.187251 0.06687,0.200626 1.003132,0.127064 0.835944,-0.07357 0.06019,0.147126 0.07356,0.140438 0.07356,0.127064 0.08694,0.127064 0.08694,0.107006 0.09362,0.100309 0.10031,0.09363 0.107006,0.08694 0.153813,0.08694 0.167189,0.07356 0.180564,0.06019 0.193938,0.06019 0.207315,0.03344 0.220689,0.03344 0.234064,0.01338 0.260814,0.0067 -0.668755,-0.555066 -0.07356,-0.10031 -0.06019,-0.100309 -0.0535,-0.107006 -0.03344,-0.106995 -0.04012,-0.120376 -0.02007,-0.113689 -0.01337,-0.120376 0,-0.120376 0.01337,-0.394564 0.147127,-0.107006 0.06687,-0.0535 0.03344,-0.02675 0.04012,-0.02007 0.127063,-0.106994 0.127063,-0.107006 0.107006,-0.120376 0.107006,-0.113688 0.09362,-0.120376 0.04012,-0.06019 0.04682,-0.0535 0.06687,-0.13375 0.06687,-0.127064 0.0535,-0.140439 0.04681,-0.13375 0.03344,-0.147127 0.02675,-0.140438 0.01337,-0.147126 0.0067,-0.147126 -0.0067,-0.140438 -0.01337,-0.133752 -0.02007,-0.127063 -0.02675,-0.120376 -0.08025,-0.240751 -0.107006,-0.22069 -0.147125,-0.220689 -0.08025,-0.106994 -0.08694,-0.09363 -0.100309,-0.10031 -0.107006,-0.09362 -0.227377,-0.167189 -0.260814,-0.167189 -0.140439,-0.07357 -0.133751,-0.06019 -0.147126,-0.06687 -0.140438,-0.0535 -0.147127,-0.0535 -0.140437,-0.04012 -0.160503,-0.04682 -0.153813,-0.03344 -0.327689,-0.04682 -0.341065,-0.03344 -0.341065,-0.0067 -0.367815,0.0067 -0.341065,0.03344 -0.32769,0.04682 -0.314315,0.08025 -0.300939,0.09363 -0.2875652,0.120376 -0.1404385,0.06019 -0.1270634,0.07357 -0.2474393,0.167189"
     style="fill:none;stroke:#336633;stroke-width:0.74231774"
     inkscape:connector-curvature="0" /><path
     id="path3023"
     d="m 52.393763,60.224356 0.120376,-0.0067 0.127064,0 0.254126,-0.0067 0.494879,-0.03344 0.481504,-0.06019 0.234063,-0.04012 0.240752,-0.03344 0.227376,-0.0535 0.234065,-0.0535 0.227376,-0.06019 0.0535,-0.02007 0.06019,-0.01338 0.120376,-0.02675 0.106995,-0.04012 0.0535,-0.02007 0.06019,-0.01337 0.227376,-0.07356 0.441378,-0.167188 0.428003,-0.193939 0.207314,-0.107006 0.214002,-0.106994 0.200626,-0.120376 0.207314,-0.120376 0.200626,-0.127063 0.10031,-0.06687 0.107006,-0.06019 0.387878,-0.287565 0.387877,-0.30094 0.374503,-0.32769 0.180564,-0.173876 0.187251,-0.167189 0.167188,-0.187251 0.173877,-0.180563 0.32769,-0.374503 0.300939,-0.387878 0.280877,-0.387877 0.06019,-0.107006 0.06687,-0.10031 0.127064,-0.200627 0.0535,-0.106994 0.02675,-0.0535 0.03344,-0.04682 0.120376,-0.200627 0.107006,-0.214002 0.106995,-0.207313 0.193938,-0.428003 0.160501,-0.441378 0.07356,-0.227377 0.01337,-0.06019 0.02007,-0.0535 0.04012,-0.107006 0.02675,-0.120376 0.01337,-0.06019 0.02007,-0.0535 0.06019,-0.227378 0.0535,-0.234063 0.0535,-0.227377 0.03344,-0.240751 0.04012,-0.234065 0.06019,-0.481503 0.03344,-0.494878 0.0067,-0.254127 0,-0.127064 0.0067,-0.120375 -0.01337,-0.514942 -0.03344,-0.494878 -0.06019,-0.488192 -0.07357,-0.474815 L 61.91682,47.946013 61.796444,47.49126 61.649328,47.043201 61.488827,46.608511 61.294889,46.17382 61.080887,45.759192 60.846824,45.344564 60.592696,44.949999 60.311819,44.555433 60.01088,44.174243 59.68319,43.799741 59.342125,43.445301 58.97431,43.09086 58.599807,42.763171 58.21193,42.455544 57.824052,42.181354 57.616737,42.040915 57.416111,41.913852 57.008171,41.679788 56.79417,41.5661 l -0.207315,-0.10031 -0.428003,-0.187251 -0.441378,-0.173877 -0.227376,-0.08025 -0.220689,-0.06687 -0.461441,-0.127065 -0.234065,-0.0535 -0.227376,-0.04012 -0.240752,-0.04682 -0.234063,-0.03344 -0.481504,-0.0535 -0.494879,-0.03344 -0.501566,-0.0067 -0.508253,0.0067 -0.494878,0.03344 -0.488192,0.0535 -0.468128,0.08026 -0.474815,0.09362 -0.454754,0.127065 -0.448065,0.147125 -0.434691,0.173877 -0.43469,0.187251 -0.421316,0.214002 -0.414628,0.234063 -0.394565,0.267502 -0.401253,0.27419 -0.38119,0.307627 -0.374503,0.32769 -0.35444,0.35444 -0.35444,0.35444 -0.321002,0.374502 -0.307627,0.38119 -0.27419,0.394566 -0.260815,0.394565 -0.234063,0.414628 -0.214002,0.414629 -0.187251,0.43469 -0.173877,0.434691 -0.147125,0.448065 -0.127064,0.454753 -0.10031,0.474816 -0.08694,0.474815 -0.0535,0.488192 -0.03344,0.494878 -0.0067,0.514942 0.0067,0.501566 0.03344,0.494878 0.0535,0.481503 0.08694,0.474816 0.10031,0.46144 0.127064,0.461441 0.06687,0.220689 0.08026,0.227378 0.173876,0.441377 0.187252,0.428004 0.100309,0.207313 0.113689,0.214002 0.234063,0.40794 0.260815,0.407941 0.27419,0.387877 0.307627,0.387879 0.321002,0.374502 0.35444,0.367814 0.35444,0.341065 0.374503,0.327691 0.38119,0.300939 0.401253,0.287565 0.394565,0.254126 0.414628,0.240752 0.421316,0.214002 0.43469,0.193938 0.434691,0.167189 0.448065,0.147126 0.454754,0.120376 0.474815,0.107006 0.468128,0.07356 0.488191,0.06019 0.494879,0.03344 0.508253,0.01337"
     style="fill:none;stroke:#336633;stroke-width:0.87606871"
     inkscape:connector-curvature="0" /><path
     id="path3025"
     d="m 47.478417,55.001382 0.247439,0.234065 0.260814,0.220689 0.267502,0.207313 0.27419,0.19394 0.274188,0.167188 0.287566,0.167188 0.294251,0.140439 0.30094,0.133751 0.30094,0.107006 0.307627,0.100309 0.314315,0.08026 0.327689,0.07356 0.321003,0.04682 0.334377,0.04012 0.341064,0.02007 0.354441,0.01337 0.08026,-0.0067 0.08694,0 0.173877,-0.0067 0.167188,-0.01337 0.173877,-0.0067 0.334376,-0.04012 0.334378,-0.04682 0.321003,-0.07356 0.321002,-0.08025 0.307627,-0.10031 0.307627,-0.107006 0.294252,-0.133751 0.294252,-0.140439 0.280877,-0.167188 0.06687,-0.04681 0.07356,-0.04012 0.147127,-0.08025 0.267502,-0.19394 0.133751,-0.106995 0.06687,-0.0535 0.03344,-0.02675 0.04012,-0.02007 0.02675,-0.03344 0.03344,-0.02675 0.06687,-0.0535 0.13375,-0.107006 0.127064,-0.120376 0.13375,-0.113689 0.234065,-0.254127 0.234063,-0.254126 0.207315,-0.267503 0.207314,-0.267502 0.180564,-0.280877 0.167188,-0.280877 0.07356,-0.147125 0.01338,-0.04012 0.02007,-0.03344 0.04012,-0.06687 0.06687,-0.147126 0.01337,-0.04012 0.02007,-0.03344 0.04012,-0.06687 0.113688,-0.307628 0.107006,-0.307627 0.08694,-0.321002 0.03344,-0.160502 0.04012,-0.153814 0.04682,-0.334376 0.04682,-0.334378 0.0067,-0.173876 0.01337,-0.167189 0.0067,-0.173876 0,-0.08694 0.0067,-0.08025 -0.01338,-0.35444 -0.02007,-0.341065 -0.04682,-0.334377 -0.04682,-0.321003 -0.07356,-0.321002 -0.08694,-0.314315 -0.107006,-0.307627 -0.113689,-0.294251 -0.140438,-0.30094 -0.147126,-0.287565 -0.167188,-0.280877 -0.180564,-0.274189 -0.207315,-0.27419 -0.207314,-0.260815 -0.234064,-0.254126 -0.234064,-0.240751 -0.133751,-0.127065 -0.127063,-0.113687 -0.260814,-0.220689 -0.27419,-0.207314 -0.267502,-0.187252 -0.287564,-0.180564 -0.280877,-0.160501 -0.294253,-0.140439 -0.294251,-0.127063 -0.307627,-0.113688 -0.307628,-0.100309 -0.321002,-0.08694 -0.321003,-0.06019 -0.334377,-0.06019 -0.334377,-0.03344 -0.341065,-0.02007 -0.341065,-0.0067 -0.35444,0.0067 -0.341065,0.02007 -0.334377,0.03344 -0.32769,0.06019 -0.32769,0.06019 -0.314315,0.08694 -0.307627,0.100309 -0.300939,0.113688 -0.30094,0.127063 -0.294253,0.140439 -0.287564,0.160501 -0.274189,0.180564 -0.280877,0.187252 -0.267501,0.207314 -0.260816,0.220689 -0.254126,0.240752 -0.247439,0.240751 -0.234064,0.254126 -0.214002,0.260815 -0.193939,0.27419 -0.180563,0.274189 -0.167189,0.280877 -0.147126,0.287565 -0.127064,0.30094 -0.127063,0.294251 -0.10031,0.307627 -0.08694,0.314315 -0.06687,0.321002 -0.06019,0.321003 -0.03344,0.334377 -0.02007,0.341065 -0.0067,0.35444 0.0067,0.341065 0.02007,0.341065 0.04012,0.334377 0.06019,0.334377 0.02675,0.153813 0.04012,0.160502 0.08694,0.321002 0.10031,0.307628 0.127063,0.307627 0.127063,0.287564 0.153814,0.287564 0.167188,0.280877 0.187251,0.280877 0.193939,0.267503 0.214002,0.267502 0.234064,0.254126 0.24744,0.254127 z m 4.721408,1.270634 -0.27419,-0.0067 -0.267502,-0.02007 -0.260814,-0.02675 -0.254127,-0.03344 -0.254126,-0.04682 -0.240752,-0.0535 -0.234065,-0.06687 -0.227376,-0.07356 0.107006,-0.374503 0.942944,0 1.330822,-1.22382 -0.762381,-0.62863 -0.133751,0.300939 -0.08694,-0.394564 -0.501566,0.441378 -0.04682,0.107005 0.200627,0.08694 -0.260815,0.133751 0.06019,-0.220689 -0.06019,-0.02007 0.107006,-0.08694 0.06687,-0.287565 0.173876,-0.173876 0.896132,-0.414628 0.240751,-0.367815 0.608567,-0.153814 0.461441,-0.682129 -0.568442,-0.280877 -0.06687,0.02007 -0.107006,-0.04012 -0.260815,0.481503 -0.441378,-0.08694 -0.280877,0.280877 -0.260814,-0.240752 -0.180564,-0.347752 0.240752,-0.374503 -0.896131,0.200626 0.09362,0.214002 -0.354441,-0.173876 0.441379,0.742318 0.06019,0.153814 -0.608567,-0.04012 -0.193938,-1.049945 -0.307628,0 0.214002,-0.414628 1.551511,0.367816 0,-0.02007 0.02675,0.04682 0.08694,0.02007 0.588504,0.06687 0.481504,0.173875 0.02007,-0.04681 0.153813,0.06687 1.571574,-0.568443 0.220689,-1.177007 -0.347752,-0.809194 -1.223821,-0.307626 -0.481504,-0.675443 -0.09363,-0.334377 -0.07356,-0.327691 -0.07357,-0.341065 -0.0535,-0.334376 -0.09362,-0.68213 -0.03344,-0.347752 -0.02007,-0.341065 -0.782443,-0.481504 -1.003133,0.829256 -0.06687,0.247439 -0.0535,0.260814 -0.08025,0.528316 -0.0535,0.541692 -0.01337,0.274189 0,0.287565 -0.896132,1.070007 0.04681,0.394566 -1.116821,0.374502 0.354441,0.608568 -0.769068,0.06687 -1.658511,-0.153814 0,-0.133752 0.0067,-0.314314 0.02007,-0.307628 0.03344,-0.300938 0.0535,-0.294253 0.06019,-0.294252 0.08694,-0.280876 0.08694,-0.27419 0.113688,-0.267502 0.113689,-0.267502 0.140439,-0.260815 0.147125,-0.254126 0.167189,-0.247439 0.180564,-0.24744 0.193939,-0.234063 0.207313,-0.234065 0.22069,-0.220689 0.227376,-0.220689 0.234064,-0.200627 0.240752,-0.193938 0.254126,-0.167189 0.24744,-0.167189 0.260815,-0.140438 0.267501,-0.127063 0.27419,-0.113689 0.274189,-0.113689 0.280877,-0.08694 0.287564,-0.07357 0.294253,-0.06019 0.294251,-0.04681 0.307628,-0.03344 0.307627,-0.02007 0.321003,-0.0067 0.307626,0.0067 0.307627,0.02007 0.30094,0.03344 0.30094,0.04681 0.287565,0.06019 0.287564,0.07357 0.274189,0.08694 0.280877,0.107006 0.260815,0.113688 0.267502,0.127064 0.254126,0.140438 0.260815,0.167188 0.240752,0.16719 0.120375,0.08694 0.127064,0.10031 0.234064,0.193938 0.234065,0.220689 0.207313,0.214002 0.207314,0.227376 0.187251,0.234065 0.180564,0.240752 0.153814,0.240752 0.153814,0.254126 0.127063,0.260814 0.127063,0.267503 0.10031,0.267501 0.08694,0.274189 0.07356,0.280877 0.07357,0.294253 0.04681,0.294252 0.03344,0.30094 0.02007,0.307627 0.01337,0.321002 -0.01337,0.280877 -0.02007,0.287564 -0.04012,0.294252 -0.04682,0.30094 -0.07356,0.300939 -0.08025,0.307628 -0.10031,0.307627 -0.106994,0.321003 -0.06687,0.140438 -0.03344,0.06687 -0.02675,0.07357 -0.120376,0.267501 -0.06687,0.120376 -0.03344,0.0535 -0.02675,0.06019 -0.120376,0.214002 -0.133751,0.173875 -0.06687,0.08026 -0.0535,0.07356 -0.133752,0.120376 -0.120374,0.107006 -0.354441,0.08694 0,-0.01337 0.0067,-0.01337 -0.0067,-0.02675 0,-0.02675 -0.01337,-0.04012 -0.01338,-0.04012 -0.01337,-0.02675 -0.0067,-0.01337 0,-0.0067 -0.02007,-0.0535 -0.04012,-0.06687 -0.04012,-0.0535 -0.04681,-0.04681 -0.04012,-0.03344 -0.0535,-0.03344 -0.0535,-0.01337 -0.06019,-0.01337 -0.0535,0 -0.09362,0.0067 -0.08025,0.02007 -0.08026,0.04012 -0.07356,0.06019 -0.07356,0.07356 -0.06687,0.08694 -0.06687,0.107006 -0.06019,0.127064 -0.08025,0.160502 -0.06687,0.153812 -0.08025,0.140439 -0.06687,0.127063 -0.08025,0.107006 -0.08026,0.10031 -0.08025,0.08025 -0.04012,0.03344 -0.03344,0.04012 -0.588504,0.32769 -0.240752,0.06019 -0.06687,0.01338 -0.0535,0.02675 -0.08694,0.06019 -0.0535,0.07357 -0.02007,0.04012 -0.0067,0.0535 0.0067,0.0535 0.01337,0.04681 0.01337,0.04012 0.02675,0.04012 0.06019,0.0535 0.03344,0.01337 0.04682,0.01337 -1.899263,0.240752 z m -2.360704,-5.72454 -0.04682,-0.02007 -0.08025,-0.133751 -0.06687,-0.127064 -0.113688,-0.260814 -0.0535,-0.140438 -0.04012,-0.133752 -0.06019,-0.274189 0.461441,1.090071 z"
     style="fill:#336633;fill-rule:evenodd;stroke:none"
     inkscape:connector-curvature="0" /><path
     id="path3027"
     d="m 52.56131,53.138106 -0.414627,0.461441 0.782443,0.829255 0.220689,-0.394565 -0.240751,-0.461441 -0.127065,0 0.260815,-0.387878 -0.481504,-0.04682 z"
     style="fill:#336633;fill-rule:evenodd;stroke:none"
     inkscape:connector-curvature="0" /><path
     id="path3029"
     d="m 52.273525,55.195132 0.133751,0.454753 0.588504,0 0.173875,-0.782443 -0.568441,0.06019 -0.327689,0.267502 z"
     style="fill:#336633;fill-rule:evenodd;stroke:none"
     inkscape:connector-curvature="0" /><path
     id="path3031"
     d="m 53.437874,53.292412 -0.394566,0.347752 0.280877,0.414629 0.307627,-0.347753 -0.193938,-0.414628 z"
     style="fill:#336633;fill-rule:evenodd;stroke:none"
     inkscape:connector-curvature="0" /><path
     id="path3033"
     d="m 49.775241,24.399782 -0.448065,0.127063 -0.434691,0.147126 -0.421315,0.160501 -0.394566,0.187251 -0.394565,0.19394 -0.374503,0.220689 -0.367814,0.234064 -0.341065,0.260815 -0.341065,0.267501 -0.314316,0.287564 -0.314315,0.307627 -0.287564,0.327691 -0.287564,0.341065 -0.260815,0.361128 -0.260814,0.381189 -0.234065,0.401253 -0.227376,0.401253 -0.193938,0.40794 -0.180564,0.414628 -0.147127,0.414629 -0.140438,0.414627 -0.107005,0.421316 -0.08694,0.428002 -0.06019,0.428003 -0.0535,0.428004 -0.02007,0.428003 0,0.434691 0.02675,0.441377 0.04012,0.441378 0.06687,0.441378 0.08694,0.448066 0.113689,0.454753 0.127063,0.43469 0.06687,0.214002 0.08026,0.220689 0.07356,0.207314 0.08694,0.214002 0.08694,0.200627 0.100309,0.207313 0.193939,0.38119 0.220689,0.381191 0.234064,0.367815 0.120376,0.173876 0.133751,0.180564 0.127063,0.160501 0.140439,0.167189 0.287565,0.327689 0.300939,0.30094 0.32769,0.30094 0.341065,0.274189 0.173876,0.133751 0.187252,0.140438 0.180564,0.120376 0.193938,0.127064 0.193939,0.120376 0.207314,0.127063 0.401253,0.214002 0.40794,0.200627 0.414628,0.173875 0.421316,0.160501 0.414627,0.133752 0.421316,0.113687 0.428003,0.08694 0.428002,0.07356 0.428004,0.04012 0.428003,0.02675 0.434691,0 0.441377,-0.02007 0.441378,-0.04682 0.441379,-0.06019 0.448065,-0.08694 0.454754,-0.107006 0.214002,-0.06687 0.220689,-0.06687 0.214001,-0.07356 0.107006,-0.04012 0.0535,-0.02007 0.06019,-0.01338 0.200626,-0.08694 0.207314,-0.08025 0.200626,-0.09363 0.04682,-0.02675 0.0535,-0.02007 0.106995,-0.04012 0.187251,-0.106995 0.09362,-0.0535 0.04682,-0.02675 0.0535,-0.02007 0.187252,-0.106994 0.193939,-0.107006 0.180563,-0.120375 0.187253,-0.120376 0.173875,-0.127063 0.180564,-0.120376 0.160501,-0.140439 0.08025,-0.07356 0.08694,-0.06687 0.160501,-0.147127 0.08025,-0.07356 0.08694,-0.06687 0.147126,-0.153814 0.07356,-0.08025 0.08026,-0.07357 0.147126,-0.160501 0.153812,-0.160501 0.133752,-0.173876 0.140438,-0.173876 0.133752,-0.180564 0.140438,-0.173876 0.02675,-0.0535 0.03344,-0.04682 0.06687,-0.09362 0.127063,-0.187252 0.120376,-0.193938 0.02675,-0.0535 0.03344,-0.04682 0.06687,-0.09363 0.214002,-0.414628 0.200627,-0.401253 0.173875,-0.414628 0.08026,-0.207314 0.08025,-0.200626 0.06019,-0.214002 0.06687,-0.207314 0.113688,-0.414627 0.08694,-0.428004 0.03344,-0.214001 0.04012,-0.207313 0,-0.06019 0.0067,-0.0535 0.01337,-0.107006 0.02007,-0.214002 0.02675,-0.428003 0,-0.441378 -0.01337,-0.22069 -0.0067,-0.214001 -0.02675,-0.227377 -0.01337,-0.113688 -0.0067,-0.107005 -0.06019,-0.441378 -0.08694,-0.454754 -0.10031,-0.441378 L 60.695997,30.33828 60.54887,29.90359 60.381682,29.482274 60.201118,29.087708 59.993804,28.693143 59.886798,28.499204 59.779792,28.318641 59.539041,27.950826 59.291602,27.609761 59.010725,27.268696 58.863598,27.101506 58.723159,26.947693 58.415532,26.633378 58.09453,26.345814 57.746778,26.05825 57.392337,25.797435 57.017835,25.536621 56.629958,25.302556 56.215329,25.07518 56.008016,24.968174 55.807389,24.874554 55.392761,24.69399 54.978134,24.540176 54.550131,24.399737 54.135502,24.292742 53.7075,24.199122 l -0.421316,-0.06019 -0.220689,-0.03344 -0.214002,-0.02007 -0.428003,-0.02007 -0.441378,0 -0.220689,0.0067 -0.214001,0.02007 -0.441378,0.04012 -0.441378,0.06687 -0.448066,0.08694 -0.441378,0.113688"
     style="fill:none;stroke:#336633;stroke-width:0.80250561"
     inkscape:connector-curvature="0" /><path
     id="path3035"
     d="m 54.255897,27.830494 -1.070007,0.200626 -0.227376,0.0535 -0.207314,0.06687 -0.193939,0.06687 -0.180564,0.08025 -0.167189,0.08026 -0.153814,0.08694 -0.140438,0.08694 -0.120376,0.100309 -0.113688,0.10031 -0.10031,0.106994 -0.08694,0.107006 -0.07356,0.120376 -0.06019,0.120376 -0.04681,0.127063 -0.03344,0.127064 -0.0067,0.140439 -0.09362,-0.113689 -0.10031,-0.10031 -0.106994,-0.08694 -0.107006,-0.07356 -0.120376,-0.07356 -0.120376,-0.04682 -0.133751,-0.04682 -0.13375,-0.02007 -0.153814,-0.02675 -0.160501,-0.0067 -0.173877,-0.0067 -0.173876,0.02007 -0.193939,0.02007 -0.193938,0.04012 -0.207315,0.04682 -0.214001,0.06019 -1.070007,0.367815 -1.203759,0.615254 -0.187251,0.862694 -1.029882,0.334378 2.086514,7.777616 4.781596,-1.678574 0.635318,0.0535 0.568441,-0.06687 0.474815,-0.214002 0.454754,-0.341065 4.96216,-0.936256 -2.09989,-7.831119 -1.11682,0.234065 -0.555067,-0.595191 -1.330822,0.06019 z m -2.541268,1.551511 0.133752,-0.147127 0.153814,-0.127063 0.167188,-0.120376 0.180564,-0.100309 0.187251,-0.107006 0.207314,-0.08694 0.220689,-0.08025 0.234064,-0.06019 1.979514,-0.280877 1.524761,5.677728 -0.922882,0.06019 -1.003132,0.200625 -1.177008,0.481504 -0.107006,0.06687 -0.08694,0.08026 -0.08025,0.08025 -0.06019,0.09363 -0.06019,0.08694 -0.04012,0.10031 -0.04012,0.100309 -0.02007,0.113688 -1.330822,-4.968848 -0.0535,-0.180564 -0.03344,-0.167188 -0.02675,-0.153813 -0.0067,-0.133751 -0.0067,-0.127064 0.01338,-0.113688 0.02007,-0.10031 0.03344,-0.08694 z m 5.062475,-0.354441 -0.341065,-0.240751 0.461439,-0.08694 1.839077,6.861423 -4.607721,0.882756 -0.40794,0.341065 -0.387877,0.187251 -0.481504,0.04682 -0.588504,-0.07356 -4.440532,1.538135 -1.8257,-6.801235 0.374502,-0.140439 -0.140438,0.307627 1.705325,6.379921 4.36028,-1.477949 0.09362,0.03344 0.100309,0.03344 0.107006,0.02007 0.113689,0.01337 0.113687,0 0.120376,-0.0067 0.120376,-0.02007 0.133751,-0.02675 0.120376,-0.04682 0.120376,-0.04682 0.106995,-0.0535 0.107005,-0.0535 0.09362,-0.06687 0.04012,-0.04012 0.0067,-0.01338 0.01338,-0.0067 0.02675,-0.01337 0.07356,-0.08026 0.07357,-0.08025 4.500719,-0.889444 -1.705324,-6.379921 z m -1.003133,-0.561754 0.561754,0.862694 1.451198,5.430288 -0.54838,-0.829256 -1.464572,-5.463726 z m 1.237196,5.938543 0.675443,0.668754 -3.992466,0.742318 -0.367816,0.428003 -0.03344,-0.133751 -0.01337,-0.120375 0.0067,-0.120376 0.02675,-0.113689 0.03344,-0.113688 0.0535,-0.107006 0.07356,-0.100309 0.09362,-0.09362 0.10031,-0.100309 0.120376,-0.08694 0.133751,-0.08694 0.153814,-0.07356 0.167188,-0.08026 0.187252,-0.06687 0.200626,-0.06687 0.22069,-0.06019 2.160077,-0.314314 z m -10.258697,-2.594769 0.08694,-0.949632 1.464574,5.463726 -0.06687,1.00982 -1.484635,-5.523914 z m 3.805214,-2.18014 0.127063,0.06019 0.0535,0.03344 0.06019,0.04682 0.106995,0.08694 0.100309,0.113689 0.04012,0.0535 0.04681,0.06687 0.07357,0.140438 0.06019,0.153813 0.02675,0.08026 0.03344,0.09362 1.330822,4.96216 -0.09363,-0.07357 -0.08694,-0.06019 -0.10031,-0.06019 -0.100309,-0.04012 -0.113688,-0.04012 -0.113688,-0.02675 -0.120376,-0.02675 -0.120376,-0.0067 -0.140438,-0.01338 -0.133752,0.0067 -0.147125,0.0067 -0.147127,0.02007 -0.1605,0.02007 -0.160501,0.03344 -0.173877,0.04012 -0.167188,0.0535 -1.792263,0.702193 -1.511386,-5.637602 0.916194,-0.454753 0.976382,-0.321003 0.207314,-0.06019 0.207313,-0.03344 0.09363,-0.02007 0.100309,-0.0067 0.187251,-0.0067 0.167189,0.0067 0.167188,0.02007 0.153814,0.03344 0.147126,0.0535 z m 2.267078,6.747735 -0.120376,-0.02007 -0.120376,-0.04012 -0.06687,-0.03344 -0.06019,-0.02675 -0.120376,-0.07356 -3.838651,1.350884 0.267501,-0.942944 1.932702,-0.76238 0.220689,-0.06019 0.214002,-0.04682 0.193938,-0.03344 0.193939,-0.01337 0.167189,-0.0067 0.160501,0.0067 0.140438,0.02007 0.140439,0.04012 0.113688,0.04012 0.113688,0.06019 0.10031,0.06019 0.09362,0.08026 0.08025,0.08025 0.07356,0.10031 0.06019,0.100309 0.06019,0.120376 z"
     style="fill:#336633;fill-rule:evenodd;stroke:none"
     inkscape:connector-curvature="0" /><path
     id="path3037"
     d="M 42.948915,10.681927 42.728227,10.467926 42.514225,10.2673 42.286849,10.066673 42.06616,9.8794215 41.832095,9.6921702 41.604719,9.5182935 41.370654,9.344418 41.143278,9.183917 40.661774,8.8762898 40.414335,8.7291634 40.173584,8.5954129 39.919456,8.4616611 39.672017,8.3412863 39.163764,8.1139089 38.896261,8.006903 38.635448,7.9132785 38.100444,7.7394018 37.552065,7.5922755 37.271188,7.5254025 36.996998,7.4718995 36.709434,7.4183965 36.428557,7.378275 36.134304,7.3381534 35.84674,7.311402 35.258236,7.27128 34.957297,7.25791 l -0.294252,0 -0.608568,0.01337 -0.595191,0.040122 -0.588504,0.066873 -0.568442,0.093624 -0.568441,0.1203748 -0.541692,0.1471264 -0.54169,0.1738767 -0.514942,0.2006258 -0.51494,0.2273774 -0.501567,0.2541266 -0.494879,0.2808769 -0.474816,0.3076273 -0.474815,0.3343765 -0.448066,0.3611279 -0.448066,0.3878777 -0.428003,0.414629 -0.428003,0.434689 -0.387877,0.448065 -0.361128,0.454754 -0.334378,0.474815 -0.314314,0.474817 -0.280877,0.494879 -0.254127,0.501566 -0.227376,0.521628 -0.207314,0.521628 -0.173877,0.541692 -0.147125,0.541691 -0.120376,0.568442 -0.09362,0.568441 -0.06687,0.588505 -0.04012,0.595191 -0.01337,0.608567 0,0.294252 0.01337,0.30094 0.04012,0.588504 0.02675,0.287564 0.04012,0.294253 0.04012,0.280877 0.0535,0.287564 0.0535,0.27419 0.06687,0.280877 0.147125,0.548378 0.08025,0.267502 0.09362,0.274191 0.09362,0.260812 0.113689,0.267504 0.227376,0.508253 0.120376,0.247439 0.133751,0.254127 0.133752,0.240752 0.147125,0.247439 0.147126,0.240752 0.167188,0.247439 0.334378,0.468129 0.173877,0.227376 0.187251,0.234064 0.187251,0.220689 0.200626,0.227377 0.428003,0.441379 0.428004,0.414627 0.448065,0.387877 0.448066,0.361128 0.234064,0.173877 0.240752,0.167188 0.474815,0.307627 0.494879,0.280877 0.501567,0.254127 0.51494,0.240752 0.514942,0.200626 0.54169,0.173876 0.541692,0.147127 0.568442,0.120376 0.568441,0.09362 0.588504,0.06687 0.595191,0.04012 0.30094,0.01337 0.307628,0.0067 0.294252,-0.0067 0.300939,-0.01337 0.588504,-0.04012 0.06687,-0.01337 0.07356,-0.0067 0.147126,-0.01337 0.294252,-0.03344 0.280877,-0.04682 0.140439,-0.02675 0.147125,-0.02007 0.133752,-0.03344 0.140438,-0.02675 0.280877,-0.06019 0.548379,-0.147127 0.535004,-0.173876 0.127063,-0.0535 0.133751,-0.04682 0.267502,-0.10031 0.508253,-0.240752 0.120376,-0.06687 0.06019,-0.03344 0.06687,-0.02675 0.254128,-0.127063 0.240751,-0.140439 0.120376,-0.07356 0.127063,-0.06687 0.481504,-0.307627 0.227376,-0.167189 0.234065,-0.173876 0.227376,-0.180564 0.113689,-0.09362 0.120376,-0.08694 0.106994,-0.10031 0.113689,-0.09362 0.227376,-0.193939 0.214002,-0.207314 0.107006,-0.107006 0.0535,-0.0535 0.06019,-0.04682 0.414627,-0.441379 0.19394,-0.227376 0.09362,-0.113689 0.10031,-0.107006 0.08694,-0.120376 0.09362,-0.113688 0.180564,-0.227377 0.334376,-0.468128 0.03344,-0.06687 0.04012,-0.06019 0.08026,-0.120376 0.153814,-0.240752 0.06687,-0.127063 0.07357,-0.120376 0.140438,-0.240752 0.127063,-0.254127 0.02675,-0.06687 0.03344,-0.06019 0.06687,-0.120376 0.234065,-0.508253 0.100309,-0.267502 0.04682,-0.133751 0.0535,-0.127063 0.04012,-0.140439 0.04682,-0.133751 0.08694,-0.267502 0.147127,-0.548378 0.06019,-0.280877 0.06687,-0.27419 0.02007,-0.147126 0.02675,-0.140438 0.04682,-0.280877 0.03344,-0.294252 0.01337,-0.147127 0.0067,-0.07356 0.01337,-0.06687 0.04012,-0.588504 0.01338,-0.30094 0.01337,-0.294252 -0.02675,-0.608567 -0.04012,-0.595191 -0.06687,-0.588505 -0.09362,-0.568441 -0.127064,-0.568443 -0.147126,-0.54169 -0.173877,-0.541692 -0.200626,-0.521627 -0.234064,-0.521629 -0.254127,-0.501566 -0.280877,-0.494879 -0.307627,-0.474816 -0.334377,-0.474816 -0.361128,-0.454754 -0.387878,-0.448065 -0.414627,-0.43469"
     style="fill:none;stroke:#336633;stroke-width:1.04325736"
     inkscape:connector-curvature="0" /><path
     id="path3039"
     d="m 31.132019,14.212952 4.025904,-2.748582 2.247015,3.036147"
     style="fill:none;stroke:#336633;stroke-width:1.04325736"
     inkscape:connector-curvature="0" /><path
     id="path3041"
     d="m 29.433383,20.251807 -2.327266,-3.296961 4.025902,-2.741894"
     style="fill:none;stroke:#336633;stroke-width:1.04325736"
     inkscape:connector-curvature="0" /><path
     id="path3043"
     d="M 31.132019,14.212952 26.765052,10.708678"
     style="fill:none;stroke:#336633;stroke-width:1.04325736"
     inkscape:connector-curvature="0" /><path
     id="path3045"
     d="M 33.432535,17.295911 31.132019,14.212952"
     style="fill:none;stroke:#336633;stroke-width:1.04325736"
     inkscape:connector-curvature="0" /><path
     id="path3047"
     d="m 29.433383,20.251807 3.999152,-2.955896"
     style="fill:none;stroke:#336633;stroke-width:1.04325736"
     inkscape:connector-curvature="0" /><path
     id="path3049"
     d="m 37.404938,14.500517 -3.972403,2.795394"
     style="fill:none;stroke:#336633;stroke-width:1.04325736"
     inkscape:connector-curvature="0" /><path
     id="path3051"
     d="m 37.404938,14.500517 3.13646,4.413781 0.127064,0.260815 0.127064,0.280877 0.107006,0.287564 0.100309,0.30094 0.07357,0.300939 0.07356,0.32769 0.0535,0.327689 0.04681,0.347753 0,0.160501 0,0.08026 0,0.04012 0.0067,0.04682 -0.0067,0.160501 0,0.16719 -0.01337,0.153813 -0.01338,0.160501 -0.01337,0.07356 -0.0067,0.08026 -0.02007,0.160501 -0.06687,0.294252 -0.08025,0.294252 -0.106995,0.280877 -0.120376,0.280877 -0.08025,0.127063 -0.07357,0.133752 -0.167188,0.254126 -0.09362,0.120376 -0.09363,0.127063 -0.200627,0.240751 -0.227376,0.227378 -0.247439,0.227376 -0.267503,0.214002 -0.04012,0.02007 -0.03344,0.02675 -0.06687,0.0535 -0.140439,0.107006 -0.307627,0.180564 -0.294252,0.160501 -0.294252,0.140438 -0.294252,0.127063 -0.294253,0.10031 -0.294251,0.08025 -0.294253,0.06019 -0.294251,0.04682 -0.294252,0.01337 -0.294252,0 -0.294252,-0.02007 -0.287565,-0.04012 -0.294252,-0.06687 -0.294253,-0.08694 -0.294251,-0.107006 -0.280877,-0.120376 -0.30094,-0.153814 -0.27419,-0.153813 -0.260814,-0.16719 -0.240751,-0.173875 -0.234064,-0.187251 -0.207314,-0.193939 -0.193939,-0.200627 -0.09362,-0.107006 -0.08026,-0.10031 -3.056208,-4.440531"
     style="fill:none;stroke:#336633;stroke-width:1.04325736"
     inkscape:connector-curvature="0" /><path
     id="path3053"
     d="m 15.195595,5.3787024 -0.561754,0.00669 -0.541692,0.040125 -0.541691,0.053501 -0.514941,0.093626 L 12.520576,5.6796401 12.025698,5.820078 11.530819,5.9805789 11.056003,6.1678313 10.581187,6.3684572 10.126434,6.6092092 9.6716808,6.8633358 9.2369902,7.1509 8.8022996,7.4585273 8.3876717,7.7929049 7.9797313,8.1473444 7.5918536,8.5352227 7.2039759,8.9297883 6.8495359,9.3444158 6.5151585,9.7590433 6.2075313,10.193734 5.9199668,10.628424 5.66584,11.083178 5.4250883,11.537932 5.2244619,12.012747 5.0372106,12.487563 4.8767094,12.982441 4.736271,13.47732 l -0.1070003,0.514941 -0.093626,0.514941 -0.053501,0.535003 -0.040125,0.541692 -0.00669,0.555067 0.00669,0.548378 0.013375,0.267502 0.02675,0.27419 0.020063,0.260814 0.033438,0.267502 0.040125,0.260814 0.053501,0.267502 0.1070003,0.508253 0.1404384,0.501567 0.073563,0.240751 0.086938,0.24744 0.086938,0.240752 0.100313,0.247439 0.093626,0.227376 0.1070002,0.234065 0.1136883,0.227376 0.1270634,0.234065 0.1203759,0.220689 0.1337509,0.227376 0.2875646,0.441378 0.3076271,0.428003 0.1605012,0.207314 0.1738762,0.214002 0.35444,0.40794 0.3878777,0.401253 0.3878777,0.374503 0.4079404,0.361127 0.4146279,0.334377 0.4346906,0.307627 0.4346906,0.280877 0.4547529,0.260815 0.454753,0.234064 0.474816,0.214001 0.474816,0.180564 0.494879,0.160501 0.494878,0.133751 0.514941,0.113689 0.514941,0.08025 0.541691,0.06687 0.541692,0.04012 0.561754,0.01338 0.267501,-0.0067 0.133752,-0.0067 0.140438,0 0.267502,-0.02007 0.133751,-0.01337 0.06687,-0.0067 0.07356,0 0.06019,-0.01337 0.06687,-0.0067 0.13375,-0.01337 0.267503,-0.03344 0.521627,-0.08025 0.508255,-0.113689 0.247439,-0.06687 0.254127,-0.06687 0.240752,-0.08025 0.247439,-0.08025 0.481503,-0.180564 0.227377,-0.107006 0.234064,-0.107006 0.227376,-0.120376 0.0535,-0.03344 0.06019,-0.02675 0.120376,-0.0535 0.220689,-0.133752 0.227376,-0.127063 0.441379,-0.280877 0.100309,-0.08026 0.107006,-0.07357 0.214002,-0.153814 0.04682,-0.04682 0.0535,-0.04012 0.107006,-0.08025 0.214001,-0.167189 0.200626,-0.180564 0.10031,-0.09362 0.107006,-0.08694 0.401253,-0.374502 0.374502,-0.401253 0.173877,-0.207314 0.180563,-0.200626 0.167189,-0.214002 0.08025,-0.107006 0.04012,-0.0535 0.04682,-0.04682 0.307627,-0.428003 0.280877,-0.441378 0.127063,-0.227376 0.02675,-0.06019 0.03344,-0.0535 0.06687,-0.107006 0.0535,-0.120376 0.02675,-0.06019 0.03344,-0.0535 0.120376,-0.227376 0.107006,-0.234065 0.107006,-0.227376 0.04012,-0.127063 0.04682,-0.120376 0.09362,-0.240752 0.08025,-0.24744 0.08025,-0.24075 0.06687,-0.254128 0.06687,-0.247439 0.120376,-0.508254 0.04012,-0.267502 0.04012,-0.260814 0.03344,-0.267502 0.01337,-0.133751 0.0067,-0.06687 0.01338,-0.06019 0,-0.07356 0.0067,-0.06687 0.01337,-0.13375 0.02007,-0.267503 0.02007,-0.548378 -0.02007,-0.555066 -0.04012,-0.541692 -0.06687,-0.535004 -0.08025,-0.51494 L 25.601433,13.477297 25.467668,12.982443 25.307167,12.487565 25.126603,12.012749 24.912601,11.537934 24.678536,11.08318 24.42441,10.628427 24.143533,10.193736 23.835906,9.7590455 23.501528,9.344418 23.147088,8.9297905 22.772586,8.5352249 22.371333,8.1473466 21.963393,7.792907 21.749391,7.6190304 21.542077,7.4585294 21.328075,7.2980285 21.120762,7.1509022 20.679383,6.8633379 20.452007,6.7295873 20.231318,6.6092113 19.997253,6.4821481 19.769877,6.3684594 19.535813,6.2614535 19.308436,6.167829 18.826933,5.9805765 18.579494,5.8936371 18.338742,5.820079 17.837176,5.6796411 17.328922,5.5726397 l -0.521628,-0.093626 -0.267502,-0.033438 -0.260814,-0.020063 -0.27419,-0.02675 -0.267502,-0.013375 -0.541691,-0.00669"
     style="fill:none;stroke:#336633;stroke-width:0.95631927"
     inkscape:connector-curvature="0" /><path
     id="path3055"
     d="m 14.379713,12.52769 -0.809193,0.715568 0,0.387878 0.835944,0 -0.02675,-1.103446 z"
     style="fill:#336633;fill-rule:evenodd;stroke:none"
     inkscape:connector-curvature="0" /><path
     id="path3057"
     d="m 14.379713,12.52769 0.07356,-0.715568 0.03344,-0.140438 0.0535,-0.113688 0.06019,-0.10031 0.08694,-0.08694 0.09362,-0.08694 0.113689,-0.06019 0.127063,-0.04681 0.147126,-0.03344 0.140438,-0.03344 0.133752,0 0.06019,0 0.06687,0.01337 0.120376,0.04682 0.107006,0.0535 0.100309,0.08694 0.09362,0.107006 0.04012,0.06019 0.04682,0.07356 0.04012,0.08694 0.04682,0.10031 0.04012,0.10031 0.04012,0.113688 0.02675,0.107006 0.03344,0.120376 0.02007,0.120376 0.02675,0.133751 0.01337,0.127064 0.01337,0.140438 0.02007,0.287564 -0.0067,0.147127 0,0.160501 -0.0067,0.1605 0,0.173877 -0.02007,0.09362"
     style="fill:none;stroke:#336633;stroke-width:0.71556753"
     inkscape:connector-curvature="0" /><path
     id="path3059"
     d="m 16.412728,16.112216 -0.04681,-2.387455"
     style="fill:none;stroke:#336633;stroke-width:0.71556753"
     inkscape:connector-curvature="0" /><path
     id="path3061"
     d="m 16.365915,13.724761 -0.04682,0 0.09362,2.387455"
     style="fill:none;stroke:#336633;stroke-width:0.71556753"
     inkscape:connector-curvature="0" /><path
     id="path3063"
     d="m 16.365915,13.724761 0.167189,-0.09362 0.113688,-0.08694 0.113689,-0.06687 0.107006,-0.06019 0.113687,-0.04681 0.09362,-0.04682 0.100309,-0.02007 0.09362,-0.02007 0.09362,0 0.07356,0 0.08025,0.02007 0.07356,0.02007 0.07356,0.04682 0.06019,0.04681 0.06019,0.06019 0.0535,0.06687 0.06019,0.08694"
     style="fill:none;stroke:#336633;stroke-width:0.71556753"
     inkscape:connector-curvature="0" /><path
     id="path3065"
     d="m 18.084615,14.533954 0.106995,-0.07356 0.120376,-0.04682 0.107006,-0.04682 0.113687,-0.02675 0.10031,-0.02675 0.107006,-0.0067 0.09362,0 0.10031,0.02007 0.08694,0.02007 0.09362,0.03344 0.08025,0.04012 0.08694,0.06019 0.07356,0.06019 0.08025,0.08694 0.07356,0.08694 0.08026,0.107006 0.02675,0.06019 0.02675,0.08025 0.01337,0.09362 0,0.0535 0.0067,0.06687 -0.0067,0.127063 -0.01337,0.147127 -0.02675,0.167188 -0.02675,0.187251"
     style="fill:none;stroke:#336633;stroke-width:0.71556753"
     inkscape:connector-curvature="0" /><path
     id="path3067"
     d="m 19.589313,15.804588 0.07357,-0.04682"
     style="fill:none;stroke:#336633;stroke-width:0.71556753"
     inkscape:connector-curvature="0" /><path
     id="path3069"
     d="m 19.662877,15.757776 -0.07357,0.07356"
     style="fill:none;stroke:#336633;stroke-width:0.71556753"
     inkscape:connector-curvature="0" /><path
     id="path3071"
     d="m 19.589313,15.831339 0,-0.02675"
     style="fill:none;stroke:#336633;stroke-width:0.71556753"
     inkscape:connector-curvature="0" /><path
     id="path3073"
     d="m 17.897364,13.631136 1.431135,0 0,-4.8551592 -5.757979,0 0,4.4672812"
     style="fill:none;stroke:#336633;stroke-width:0.71556753"
     inkscape:connector-curvature="0" /><path
     id="path3075"
     d="m 17.897364,13.631136 0.02007,0.04682 0.0535,0.107006 0.02007,0.0535 0.02675,0.06019 0.03344,0.107006 0.02675,0.113689 0.01337,0.100309 0.0067,0.107006 -0.0067,0 0,0.0067 0,0.01337 0,0.02675 0,0.0535 -0.0067,0.107006"
     style="fill:none;stroke:#336633;stroke-width:0.71556753"
     inkscape:connector-curvature="0" /><path
     id="path3077"
     d="m 14.500089,16.232592 -0.140437,0.03344 -0.127064,0.04682 -0.127063,0.06019 -0.120376,0.08694 -0.120376,0.08694 -0.113689,0.10031 -0.106994,0.113688 -0.10031,0.140438 -0.100309,0.133752 -0.08694,0.153813 -0.07356,0.153814 -0.0535,0.173876 -0.0535,0.167189 -0.03344,0.187251 -0.02007,0.193939 -0.0067,0.207314 -0.0067,0.207313 0.01338,0.220689 0.02007,0.227378 0.04682,0.240751 0.04682,0.240752 0.06687,0.254126 0.07356,0.260815 0.09362,0.280877 0.04682,0.107006 0.07356,0.120376 0.08694,0.120376 0.120376,0.120376 0.133751,0.107006 0.1605,0.120376 0.08025,0.0535 0.09362,0.06019 0.207314,0.120376 0.06687,0.03344 0.06687,0.0535 0.06019,0.0535 0.06687,0.07356 0.04682,0.07356 0.0535,0.08694 0.04012,0.08694 0.04682,0.107006 0.02675,0.10031 0.03344,0.120376 0.02675,0.120376 0.02675,0.140439 0.01337,0.140438 0.01337,0.153813 0.0067,0.153814 0.0067,0.173877 4.179718,0 0.04681,-0.407941 0.06019,-0.367815 0.07356,-0.334378 0.10031,-0.287564 0.04682,-0.140439 0.06019,-0.120376 0.127063,-0.214001 0.140439,-0.187252 0.07356,-0.08025 0.08694,-0.06019 0.173875,-0.153814 0.160502,-0.147126 0.140438,-0.147126 0.127063,-0.140438 0.09362,-0.147127 0.08025,-0.13375 0.06019,-0.140439 0.04682,-0.133751 0.08025,-0.394565 0.06019,-0.387878 0.03344,-0.387878 0.01337,-0.38119 -0.01337,-0.38119 -0.03344,-0.374502 -0.06019,-0.367816 -0.08025,-0.361127 -0.0535,-0.153814 -0.04682,-0.140438 -0.06019,-0.127063 -0.06019,-0.107006 -0.07356,-0.106995 -0.07356,-0.08694 -0.08025,-0.08026 -0.08026,-0.06019 -0.107006,-0.06019 -0.107006,-0.03344 -0.100309,-0.01337 -0.09362,0.02007 -0.09362,0.03344 -0.09362,0.06019 -0.08694,0.08025 -0.08026,0.107006"
     style="fill:none;stroke:#336633;stroke-width:0.71556753"
     inkscape:connector-curvature="0" /><path
     id="path3079"
     d="m 19.589313,15.831339 0,2.026326"
     style="fill:none;stroke:#336633;stroke-width:0.71556753"
     inkscape:connector-curvature="0" /><path
     id="path3081"
     d="m 18.084615,14.533954 -0.02007,2.775333"
     style="fill:none;stroke:#336633;stroke-width:0.71556753"
     inkscape:connector-curvature="0" /><path
     id="path3083"
     d="m 16.412728,16.112216 0.02007,0.78913"
     style="fill:none;stroke:#336633;stroke-width:0.71556753"
     inkscape:connector-curvature="0" /><path
     id="path3085"
     d="M 14.379713,12.52769 13.57052,13.243258"
     style="fill:none;stroke:#336633;stroke-width:0.71556753"
     inkscape:connector-curvature="0" /><path
     id="path3087"
     d="m 13.57052,13.243258 -1.63176,1.391009"
     style="fill:none;stroke:#336633;stroke-width:0.71556753"
     inkscape:connector-curvature="0" /><path
     id="path3089"
     d="m 11.93876,14.634267 -5.283163,0 0,4.467282 5.550664,0 0,-4.467282 -0.267501,0"
     style="fill:none;stroke:#336633;stroke-width:0.71556753"
     inkscape:connector-curvature="0" /><path
     id="path3091"
     d="m 14.500089,16.232592 -0.09362,-2.601456 -0.02675,-1.103446"
     style="fill:none;stroke:#336633;stroke-width:0.71556753"
     inkscape:connector-curvature="0" /><path
     id="path3093"
     d="m 14.593715,17.857665 -0.09362,-1.625073"
     style="fill:none;stroke:#336633;stroke-width:0.71556753"
     inkscape:connector-curvature="0" /><path
     id="path3095"
     d="M 11.93876,14.634267 9.2904905,16.928096"
     style="fill:none;stroke:#336633;stroke-width:0.71556753"
     inkscape:connector-curvature="0" /><path
     id="path3097"
     d="m 52.879104,3.3926687 -0.508253,0.00668 -0.494879,0.033437 -0.488191,0.053503 -0.468128,0.080254 -0.474816,0.093625 -0.454753,0.1270633 -0.448066,0.1471264 -0.43469,0.1738755 -0.434691,0.1872513 -0.421316,0.2140016 -0.414627,0.2340647 -0.394566,0.2675023 -0.394565,0.2741885 -0.38119,0.3076273 -0.374503,0.32769 -0.354439,0.3544396 -0.354441,0.3544406 -0.321002,0.3745026 -0.307627,0.3811898 -0.27419,0.3945657 -0.260814,0.3945644 -0.234064,0.4146287 -0.214002,0.4213148 -0.180564,0.4346906 -0.173875,0.4346905 -0.147127,0.4480671 -0.127063,0.454752 -0.09362,0.474817 -0.08025,0.468128 -0.0535,0.488191 -0.03344,0.494879 -0.0067,0.508253 0.0067,0.501566 0.03344,0.494878 0.0535,0.481504 0.08025,0.481503 0.04012,0.227376 0.0535,0.234065 0.127063,0.461441 0.06687,0.220689 0.08026,0.227376 0.173875,0.441378 0.180564,0.428003 0.10031,0.207314 0.113688,0.214002 0.234065,0.40794 0.260814,0.401253 0.27419,0.387877 0.147126,0.187252 0.160501,0.193939 0.321002,0.374503 0.35444,0.367815 0.35444,0.341065 0.374502,0.327689 0.38119,0.30094 0.394566,0.287564 0.394566,0.254127 0.414627,0.240752 0.421316,0.214002 0.434691,0.193938 0.43469,0.16719 0.448065,0.147125 0.454754,0.120376 0.474815,0.107006 0.468129,0.07356 0.488191,0.06019 0.494878,0.03344 0.508254,0.01337 0.494878,-0.01337 0.494879,-0.03344 0.481504,-0.06019 0.234063,-0.04012 0.240752,-0.03344 0.227376,-0.0535 0.234065,-0.0535 0.227376,-0.06019 0.0535,-0.02007 0.06019,-0.01338 0.120376,-0.02675 0.106995,-0.04012 0.0535,-0.02007 0.06019,-0.01337 0.227376,-0.07356 0.441378,-0.167189 0.428003,-0.193939 0.207314,-0.107006 0.214002,-0.107005 0.200626,-0.120376 0.207314,-0.120376 0.200626,-0.127064 0.10031,-0.06687 0.107006,-0.06019 0.387878,-0.287564 0.387877,-0.30094 0.374503,-0.327689 0.180564,-0.173877 0.187251,-0.167188 0.167188,-0.187251 0.173877,-0.180564 0.32769,-0.374503 0.147125,-0.19394 0.153814,-0.187251 0.280877,-0.387877 0.254126,-0.401253 0.0535,-0.107006 0.02675,-0.0535 0.03344,-0.04682 0.120376,-0.200626 0.106995,-0.214001 0.107006,-0.207315 0.193938,-0.428003 0.16719,-0.441378 0.07356,-0.227376 0.01337,-0.06019 0.02007,-0.0535 0.04012,-0.107006 0.02675,-0.120376 0.01338,-0.06019 0.02007,-0.0535 0.06019,-0.227376 0.0535,-0.234065 0.0535,-0.227376 0.08026,-0.481503 0.06019,-0.481504 0.03344,-0.494878 0.0067,-0.254127 0.01337,-0.247439 -0.02007,-0.508253 -0.03344,-0.494879 -0.06019,-0.488191 -0.08025,-0.468128 L 62.402161,10.782376 62.281785,10.327624 62.13466,9.8795575 61.96747,9.4448669 61.773532,9.0101763 61.55953,8.5888615 61.325466,8.1742329 61.071339,7.7796684 60.790462,7.3851028 60.489523,7.0039129 60.161833,6.6294104 59.820768,6.2749697 59.452953,5.9205302 59.07845,5.5928401 58.690573,5.2852128 58.302695,5.0110243 58.09538,4.8705853 57.894754,4.743522 57.486814,4.5094574 57.272813,4.3957698 57.065498,4.2954603 56.637495,4.108209 56.196117,3.9343334 55.968741,3.854079 55.748052,3.787206 55.286611,3.6601427 55.052546,3.6066397 54.82517,3.5665182 54.584418,3.5197002 54.350355,3.4862637 53.868851,3.4327608 53.373972,3.3993243 52.879094,3.3926392"
     style="fill:none;stroke:#336633;stroke-width:0.87606871"
     inkscape:connector-curvature="0" /><path
     id="path3099"
     d="m 52.116724,12.888985 1.457885,-5.3700999 -5.350038,-1.4244477 -1.484636,5.3099136 5.376789,1.484634"
     style="fill:none;stroke:#336633;stroke-width:0.65537965"
     inkscape:connector-curvature="0" /><path
     id="path3101"
     d="m 54.410553,8.9567085 -1.531449,5.5038505 -5.436976,-1.397697 -0.100309,0.367815 -0.07356,0.374503 -0.06019,0.361128 -0.04012,0.361127 -0.03344,0.347752 -0.01337,0.347753 0.0067,0.334377 0.02007,0.334377 0.03344,0.321002 0.04681,0.321003 0.06019,0.307628 0.08694,0.307627 0.09362,0.294251 0.113689,0.294253 0.127063,0.280877 0.06687,0.140438 0.08025,0.147126 0.127065,0.234064 0.153813,0.234064 0.153813,0.220689 0.173877,0.214002 0.173876,0.200626 0.193939,0.19394 0.200626,0.180564 0.22069,0.180562 0.207313,0.147127 0.214002,0.140439 0.220689,0.127063 0.234064,0.127063 0.234064,0.107006 0.240752,0.10031 0.247439,0.08694 0.260814,0.08025 2.07314,0.13375 0.127063,-0.02675 0.133752,-0.02007 0.267501,-0.0535 0.127063,-0.04012 0.133752,-0.03344 0.267501,-0.07356 0.120376,-0.0535 0.06019,-0.02675 0.06687,-0.02007 0.254127,-0.100309 0.120376,-0.06687 0.02675,-0.02007 0.03344,-0.01337 0.06687,-0.02675 0.120376,-0.06687 0.02675,-0.02007 0.03344,-0.01337 0.06687,-0.02675 0.02675,-0.02675 0.03344,-0.02007 0.06687,-0.04012 0.133752,-0.08025 0.254126,-0.180564 0.120376,-0.10031 0.127063,-0.09362 0.240752,-0.200626 0.227377,-0.220689 0.106994,-0.120376 0.0535,-0.06019 0.06019,-0.0535 0.04682,-0.06687 0.0535,-0.06019 0.107006,-0.120376 0.200626,-0.247439 0.04012,-0.07356 0.04682,-0.06687 0.09363,-0.133752 0.173876,-0.280877 0.08026,-0.153814 0.08694,-0.147126 0.160501,-0.300939 0.147127,-0.32769 0.06687,-0.167188 0.07357,-0.160501 0.02675,-0.09363 0.01337,-0.04682 0.02007,-0.04012 0.06687,-0.173877 0.120376,-0.354439 1.484635,-5.657666 -5.390163,-1.4846346"
     style="fill:none;stroke:#336633;stroke-width:0.65537965"
     inkscape:connector-curvature="0" /><g
     style="fill-rule:evenodd"
     id="g3103"
     transform="matrix(0.11804431,0,0,0.11804431,-23.471921,-37.601645)" /></svg>