<svg viewBox="0 0 48 48" xmlns="http://www.w3.org/2000/svg">
  <path d="M41 42H7c-2.207 0-4-1.793-4-4V10c0-2.207 1.793-4 4-4h34c2.207 0 4 1.793 4 4v28c0 2.207-1.793 4-4 4z" fill="#FFC107" />
  <path d="M7 10h34v28H7z" fill="#388E3C" />
  <path d="M28 36h8v2h-8zM27 20a3 3 0 11-6.002-.002A3 3 0 0127 20z" fill="#FFF" />
  <path d="M18 23a1.999 1.999 0 11-4 0 1.999 1.999 0 114 0z" fill="#A5D6A7" />
  <path d="M7 10h34v2H7z" fill="#2E7D32" />
  <path d="M36 38h-8l4 4h8z" fill="#FFAB00" />
  <path d="M34 23a1.999 1.999 0 11-4 0 1.999 1.999 0 114 0zM37 28.688c0-.446-.164-.875-.469-1.2C35.84 26.75 34.363 26 32 26c-2.363 0-3.84.75-4.531 1.488a1.747 1.747 0 00-.469 1.2V30h10zM21 28.688c0-.446-.164-.875-.469-1.2C19.84 26.75 18.363 26 16 26c-2.363 0-3.84.75-4.531 1.488a1.747 1.747 0 00-.469 1.2V30h10z" fill="#A5D6A7" />
  <path d="M30 27.742c0-.535-.195-1.047-.563-1.437C28.605 25.418 26.837 24 24 24c-2.836 0-4.605 1.418-5.438 2.305A2.08 2.08 0 0018 27.742V30h12z" fill="#FFF" />
</svg>