<svg viewBox="0 0 48 48" xmlns="http://www.w3.org/2000/svg">
  <path fill="#ffab40" d="M33.5 16c-2.5 0-4.8 1-6.5 2.6-1.7-1.6-4-2.6-6.5-2.6-5.2 0-9.5 4.3-9.5 9.5V37h6V24.5c0-1.9 1.6-3.5 3.5-3.5s3.5 1.6 3.5 3.5V37h6V24.5c0-1.9 1.6-3.5 3.5-3.5s3.5 1.6 3.5 3.5V37h6V25.5c0-5.2-4.3-9.5-9.5-9.5z" />
  <path d="M5.5 16.2h1V32h-1z" />
  <path fill="#424242" d="M22 13c1.1.4 2.6 2 3 3-1.8 1.7-2.6 2.9-3 6-.1 1.1-.9 1.7-2 1-3.1-1.9-6-2-8-2-1-1-.5-3.7 0-5l6 1 4-4z" />
  <path fill="#616161" d="M18 17H4l11-7h14l-11 7z" />
  <path fill="#424242" d="M7.5 30c0-2.2-.7-4-1.5-4s-1.5 1.8-1.5 4 .7 4 1.5 4 1.5-1.8 1.5-4z" />
</svg>